<svg xmlns="http://www.w3.org/2000/svg" xmlns:xlink="http://www.w3.org/1999/xlink" viewBox="0 0 67.28 65.05"><defs><style>.cls-1,.cls-24,.cls-25,.cls-4{fill:none;}.cls-2,.cls-61{fill:#3b5333;}.cls-13,.cls-14,.cls-2,.cls-26,.cls-3,.cls-4,.cls-43,.cls-5,.cls-56,.cls-57,.cls-58,.cls-6,.cls-62,.cls-63,.cls-65,.cls-67,.cls-8{stroke:#1d1d1b;}.cls-13,.cls-14,.cls-2,.cls-26,.cls-3,.cls-4,.cls-43,.cls-5,.cls-56,.cls-57,.cls-58,.cls-59,.cls-6,.cls-60,.cls-61,.cls-62,.cls-63,.cls-64,.cls-65,.cls-66,.cls-7,.cls-8{stroke-miterlimit:10;}.cls-13,.cls-14,.cls-2,.cls-24,.cls-25,.cls-26,.cls-3,.cls-43,.cls-5,.cls-56,.cls-58,.cls-6,.cls-61,.cls-62,.cls-65,.cls-66,.cls-67,.cls-7,.cls-8{stroke-width:0.25px;}.cls-3,.cls-57{fill:#316b2d;}.cls-4,.cls-57,.cls-59,.cls-60,.cls-63,.cls-64{stroke-width:0.5px;}.cls-5{fill:#f6d2bf;}.cls-6{fill:#ececec;}.cls-7{fill:#e2daca;}.cls-25,.cls-7{stroke:#000;}.cls-8{fill:#f4f4ad;}.cls-9{fill:#575756;}.cls-10{fill:#dfdfdf;}.cls-11{fill:#a1a09f;}.cls-12{fill:#a3a3a2;}.cls-13{fill:#b9cbea;}.cls-14{fill:#c5f4c5;}.cls-15{fill:#60676d;}.cls-15,.cls-16,.cls-17,.cls-18,.cls-20,.cls-21,.cls-22,.cls-23{fill-rule:evenodd;}.cls-16{fill:#e94d4f;}.cls-18{fill:#4e4e50;}.cls-19{clip-path:url(#clip-path);}.cls-20{fill:#e8e9e8;}.cls-21{fill:#92999d;}.cls-22{fill:#fff;}.cls-23{fill:#c1c2c1;}.cls-24{stroke:#9a9b9c;}.cls-24,.cls-25{stroke-linecap:round;stroke-linejoin:round;}.cls-26{fill:#ecb6d4;}.cls-27{fill:#020202;}.cls-28{fill:#90d1ef;}.cls-29{fill:#8dd0ed;}.cls-30{fill:#6a7c8c;}.cls-31{fill:#57bee3;}.cls-32{fill:#e4e8f6;}.cls-33{fill:#8dcfed;}.cls-34{fill:#c1cae7;}.cls-35{fill:#57bee5;}.cls-36{fill:#58c0e5;}.cls-37{fill:#58bde3;}.cls-38{fill:#8ccfec;}.cls-39{fill:#57bce1;}.cls-40{fill:#c1cbe8;}.cls-41{fill:#8ed0ee;}.cls-42{fill:#09a9d7;}.cls-43{fill:#c2f3fa;}.cls-44{fill:#ebe9eb;}.cls-45{fill:#010101;}.cls-46{fill:#d7d6d9;}.cls-47{fill:#f3a6b1;}.cls-48{fill:#f3a4af;}.cls-49{fill:#030303;}.cls-50{fill:#d6d3d6;}.cls-51{fill:#f3a3ae;}.cls-52{fill:#030404;}.cls-53{fill:#f3a2ab;}.cls-54{fill:#dc606b;}.cls-55{fill:#d18b94;}.cls-56,.cls-64{fill:#312782;}.cls-58{fill:#1d1d1b;}.cls-59,.cls-66{fill:#45436a;stroke:#414f9d;}.cls-60,.cls-62{fill:#55594f;}.cls-60{stroke:#8d8d8d;}.cls-61{stroke:#5e5e5d;}.cls-63{fill:#554595;}.cls-64{stroke:#2e2050;}.cls-65{fill:#fceef0;}.cls-67{fill:#8e939b;stroke-miterlimit:133.33;}.cls-68{fill:#b1b7c0;}.cls-69{fill:#9ea6b1;}.cls-70{fill:#89cdee;}.cls-71{fill:#8acff0;}.cls-72{fill:#b8e1f6;}.cls-73{fill:#b6e0f6;}.cls-74{fill:#e6f3fa;}.cls-75{fill:#020303;}.cls-76{fill:#868f9d;}.cls-77{fill:#848e9c;}.cls-78{fill:#436fac;}.cls-79{fill:#e5f1f8;}.cls-80{fill:#f7d5a8;}.cls-81{fill:#46738b;}.cls-82{fill:#210b09;}.cls-83{fill:#13273e;}.cls-84{fill:#b5e0f3;}.cls-85{fill:#0a2028;}.cls-86{fill:#e7ab6b;}.cls-87{fill:#87bdd2;}.cls-88{fill:#82b7cc;}</style><clipPath id="clip-path"><rect class="cls-1" x="3.89" y="40.4" width="7.74" height="9.64"/></clipPath></defs><g id="Layer_2" data-name="Layer 2"><g id="Layer_1-2" data-name="Layer 1"><line class="cls-2" x1="53.25" y1="48.2" x2="38.91" y2="51.42"/><line class="cls-2" x1="26.44" y1="47.91" x2="15.26" y2="47.91"/><line class="cls-3" x1="26.74" y1="10.95" x2="20.73" y2="13.12"/><line class="cls-4" x1="27.44" y1="36.05" x2="14.47" y2="43.51"/><line class="cls-4" x1="34.03" y1="15.71" x2="34.03" y2="49.71"/><line class="cls-4" x1="27.06" y1="29.13" x2="15.28" y2="23.09"/><line class="cls-4" x1="47.89" y1="40.07" x2="54.16" y2="42.99"/><line class="cls-4" x1="48.36" y1="25.21" x2="53.69" y2="22.31"/><ellipse class="cls-5" cx="59.31" cy="44.14" rx="7.5" ry="7.38"/><ellipse class="cls-6" cx="59.3" cy="44.14" rx="6.19" ry="6.09"/><g id="g134517"><path id="path45519" class="cls-7" d="M57.54,46.87a3.79,3.79,0,0,1-3-1.67,2.13,2.13,0,0,1,0-2.13c1-1.65,3.74-2.21,5.67-1.13a2.93,2.93,0,0,1,1.31,1.32s0,.09.1.1l.09,0a1.68,1.68,0,0,1,.63-.43,1.86,1.86,0,0,1,1.07,0,1.39,1.39,0,0,1,.83.81,1.65,1.65,0,0,1,0,.7,1.38,1.38,0,0,1-1.35.89,1.42,1.42,0,0,1-1.13-.45.25.25,0,0,0-.11,0c-.08,0-.12.12-.12.12A3.49,3.49,0,0,1,59,46.79a5.45,5.45,0,0,1-1.43.08Z"/></g><ellipse class="cls-8" cx="34.03" cy="57.32" rx="7.73" ry="7.61"/><ellipse class="cls-6" cx="34.02" cy="57.32" rx="6.39" ry="6.28"/><path class="cls-9" d="M28.06,58.1a.77.77,0,0,1,.34-.28,2,2,0,0,0,.57-.4,3.55,3.55,0,0,0,.63-.9,5.44,5.44,0,0,1,.37-.86,3.08,3.08,0,0,1,1.28-1.25,2.48,2.48,0,0,1,2-.09,3.38,3.38,0,0,1,1.63,1.4,4.45,4.45,0,0,1,.6,1.44,3.16,3.16,0,0,0,.77,1.51,1.59,1.59,0,0,0,1,.53,1.57,1.57,0,0,0,1.5-.58,2.09,2.09,0,0,0,.47-1,.2.2,0,0,1,.35-.14.67.67,0,0,1,.14.19,1.31,1.31,0,0,1,.16.73.64.64,0,0,1-.06.18.34.34,0,0,0,0,.1.45.45,0,0,1,0,.16,3.07,3.07,0,0,1-.72,1.44,2,2,0,0,1-1.36.71,3,3,0,0,1-2-.4.57.57,0,0,0-.22-.07.75.75,0,0,1-.67-.57.14.14,0,0,0-.1-.12.35.35,0,0,1-.26-.35.05.05,0,0,0,0,0l-.1-.07a.74.74,0,0,1-.35-.68.3.3,0,0,0-.1-.25.76.76,0,0,1-.21-.52.19.19,0,0,0-.09-.19.29.29,0,0,1-.1-.34c0-.12,0-.12-.07-.19a.71.71,0,0,1-.33-.59.17.17,0,0,0-.1-.16.36.36,0,0,1-.24-.29s0-.07-.08-.09a1.1,1.1,0,0,0-1.19.08,1.34,1.34,0,0,0-.48.58,5.31,5.31,0,0,1-.7,1.2,2.22,2.22,0,0,1-.32.36,2.08,2.08,0,0,1-.7.42,1.72,1.72,0,0,1-.81.12.73.73,0,0,1-.44-.19.22.22,0,0,1-.06-.28,0,0,0,0,0,0-.05A.25.25,0,0,1,28.06,58.1Zm1.48.08h0a2.45,2.45,0,0,0,.72-.75l.05-.08c.13-.24.26-.48.38-.73a2.23,2.23,0,0,1,.49-.68A1.51,1.51,0,0,1,33,55.73a.29.29,0,0,1,.18.22.31.31,0,0,0,.2.22.35.35,0,0,1,.11.1.27.27,0,0,1,0,.18.55.55,0,0,0,.34.52c.07,0,.1.07.09.14a.31.31,0,0,1,0,.1.27.27,0,0,0,.14.36.15.15,0,0,1,0,.06.9.9,0,0,1,0,.16.74.74,0,0,0,.2.45.24.24,0,0,1,.07.24.63.63,0,0,0,.35.68.16.16,0,0,1,.1.14.33.33,0,0,0,.25.28c.06,0,.09.05.09.11a.58.58,0,0,0,.5.47.86.86,0,0,1,.27.09,2.76,2.76,0,0,0,1.71.36,1.83,1.83,0,0,0,1.2-.64,2.69,2.69,0,0,0,.58-1.23,1.66,1.66,0,0,0,0-.59.24.24,0,0,1,0,.07,2.52,2.52,0,0,1-.55.82,2,2,0,0,1-1.7.54A2.09,2.09,0,0,1,36,58.93a3.22,3.22,0,0,1-.6-.9.36.36,0,0,0,0-.09c-.07-.23-.16-.45-.22-.69a4.46,4.46,0,0,0-.61-1.42,2.93,2.93,0,0,0-1.36-1.14,2.08,2.08,0,0,0-1.79.08,2.79,2.79,0,0,0-1.21,1.35c-.08.17-.14.34-.21.51s-.09.2-.14.3a1.88,1.88,0,0,1-.12.18.05.05,0,0,1,0,0,3.41,3.41,0,0,1-.5.58l-.18.16-.21.14-.37.21s-.07.07,0,.12a1.09,1.09,0,0,0,.24.07,1.25,1.25,0,0,0,.63-.1l.26-.14Z"/><path class="cls-10" d="M29.27,58.33a1.2,1.2,0,0,1-.62.1,1.09,1.09,0,0,1-.24-.07l.25,0a1.74,1.74,0,0,0,.81-.44,2.92,2.92,0,0,0,.83-1.2l0,0,.11-.11c.09-.13.16-.27.25-.4a3,3,0,0,1,.67-.66,1.87,1.87,0,0,1,1-.35,1.67,1.67,0,0,1,1,.28l.13,0a.29.29,0,0,1,.29.2l0,.08a.53.53,0,0,1,.35,0h0a2.45,2.45,0,0,0-.46-.45,2.06,2.06,0,0,0-1.09-.44,2,2,0,0,0-1.13.22,2.69,2.69,0,0,0-1.23,1.24.44.44,0,0,0-.05.4,0,0,0,0,1,0,0l-.09.2h0V56.8a.47.47,0,0,0-.24.1l-.06,0c.05-.1.1-.2.14-.3s.13-.34.21-.51a2.79,2.79,0,0,1,1.21-1.35,2.08,2.08,0,0,1,1.79-.08,2.93,2.93,0,0,1,1.36,1.14,4.46,4.46,0,0,1,.61,1.42c.06.24.15.46.22.69l-.07,0a.11.11,0,0,0-.17.07.58.58,0,0,0,0,.18c0,.07.08.08.14.07a.13.13,0,0,0,.1-.12V58a3.22,3.22,0,0,0,.6.9,2.09,2.09,0,0,0,1.21.65,2,2,0,0,0,1.7-.54,2.52,2.52,0,0,0,.55-.82.24.24,0,0,0,0-.07,1.66,1.66,0,0,1,0,.59A2.69,2.69,0,0,1,38.89,60a1.83,1.83,0,0,1-1.2.64A2.76,2.76,0,0,1,36,60.25a.86.86,0,0,0-.27-.09.58.58,0,0,1-.5-.47c0-.06,0-.09-.09-.11a.33.33,0,0,1-.25-.28.16.16,0,0,0-.1-.14.63.63,0,0,1-.35-.68.24.24,0,0,0-.07-.24.74.74,0,0,1-.2-.45.9.9,0,0,0,0-.16.15.15,0,0,0,0-.06.27.27,0,0,1-.14-.36.31.31,0,0,0,0-.1c0-.07,0-.11-.09-.14a.55.55,0,0,1-.34-.52.27.27,0,0,0,0-.18.35.35,0,0,0-.11-.1.31.31,0,0,1-.2-.22.29.29,0,0,0-.18-.22,1.51,1.51,0,0,0-1.78.21,2.23,2.23,0,0,0-.49.68c-.12.25-.25.49-.39.73,0-.07,0-.15.05-.22a.26.26,0,0,0-.07-.23.32.32,0,0,0,0,.09s0,.09,0,.13a.43.43,0,0,1-.31.39.06.06,0,0,0-.07.07.29.29,0,0,0,.25-.06l.12-.09a2.42,2.42,0,0,1-.71.75.36.36,0,0,0,.06-.25s-.08.07-.09.11a.31.31,0,0,1-.32.18c-.05,0-.09,0-.12.05l.14,0Zm6.6.92h0l0,0h0Zm-1.22-2.78h0v0a0,0,0,0,0,0,0c0-.09,0-.09-.12-.07l.12.09ZM39,59.58l.15-.28a.08.08,0,0,0,0-.11.09.09,0,0,0-.13,0l-.08.06a3.37,3.37,0,0,1-.37.29,1.92,1.92,0,0,1-1.46.26,2,2,0,0,1-.75-.3l-.07,0-.18.11a.26.26,0,0,1,.23.33.38.38,0,0,1,.38.14.18.18,0,0,0,.08.07,2.24,2.24,0,0,0,1.09.07,2.39,2.39,0,0,0,.54-.15A1.78,1.78,0,0,0,39,59.58Zm-4.27-1.2a.23.23,0,0,0-.25.16.52.52,0,0,0,.22.53A.21.21,0,0,0,35,59a.41.41,0,0,0,0-.19A.47.47,0,0,0,34.72,58.38Zm-1-1.55a.29.29,0,0,0,.24,0c.06,0,.09,0,.09-.11a.84.84,0,0,1,0-.2s0-.06,0-.08a.4.4,0,0,0-.22-.24.23.23,0,0,0-.34.21A.42.42,0,0,0,33.76,56.83Zm.86,1.31s.07-.06.08-.1a.48.48,0,0,0-.14-.48.22.22,0,0,0-.33.13.42.42,0,0,0,.09.36A.22.22,0,0,0,34.62,58.14Zm-1-2.56a.23.23,0,0,0-.29,0,.37.37,0,0,0-.15.25.22.22,0,0,0,.08.24.21.21,0,0,0,.24,0A.33.33,0,0,0,33.65,55.58Zm1.54,3.88a.38.38,0,0,0,.26-.31c0-.15-.05-.25-.21-.24a.33.33,0,0,0-.3.32C34.94,59.4,35,59.47,35.19,59.46Zm.5.62a.31.31,0,0,0,.23,0,.39.39,0,0,0,.27-.18.15.15,0,0,0-.09-.24.41.41,0,0,0-.42.1A.17.17,0,0,0,35.69,60.08ZM34.2,57a.43.43,0,0,0-.2.22.2.2,0,0,0,.07.25.3.3,0,0,0,.3-.08,0,0,0,0,1,0,0,.7.7,0,0,1,.08-.2A.12.12,0,0,0,34.4,57,.24.24,0,0,0,34.2,57Zm-.34-.84a.33.33,0,0,0,.35-.22.15.15,0,0,0-.15-.21.43.43,0,0,0-.28.09.2.2,0,0,0-.08.2A.18.18,0,0,0,33.86,56.19Zm1.82,3.51a.75.75,0,0,0,0-.15.19.19,0,0,0-.14-.17.22.22,0,0,0-.26.13.28.28,0,0,0,.07.33A.23.23,0,0,0,35.68,59.7Zm-1.16-2.85a.32.32,0,0,0,.07-.26.16.16,0,0,0-.17-.14.32.32,0,0,0-.24.29c0,.12,0,.18.17.21S34.47,56.9,34.52,56.85Zm2.08,3.44a.17.17,0,0,0-.08-.25.35.35,0,0,0-.3,0,.15.15,0,0,0,0,.25A.33.33,0,0,0,36.6,60.29Zm-1.85-2.22c-.09.07-.12.17-.06.24a.22.22,0,0,0,.35,0,.14.14,0,0,0,0-.16.16.16,0,0,0-.14-.09Zm.86.8a.28.28,0,0,0,0,.25.13.13,0,0,0,.19.07.2.2,0,0,0,0-.32A.15.15,0,0,0,35.61,58.87Zm-.52-1a.12.12,0,0,0,.09-.1.28.28,0,0,0,0-.28.12.12,0,0,0-.19,0A.3.3,0,0,0,35.09,57.87Zm-.36-.43a.64.64,0,0,0,.06-.18.11.11,0,0,0-.18-.09.28.28,0,0,0-.14.22.11.11,0,0,0,.14.12ZM36,59.5a.32.32,0,0,0,.23-.09.17.17,0,0,0,0-.12.13.13,0,0,0-.09-.07c-.08,0-.2.06-.23.16S35.89,59.47,36,59.5Zm-.57-.73a.2.2,0,0,1-.25-.09.29.29,0,0,1,.05-.36l0,0-.17.17.15.36c.11,0,.23,0,.33.08l0-.06,0-.06-.06-.08Zm-.12-.09c.06,0,.13,0,.14,0a.18.18,0,0,0,0-.2s-.08-.06-.11,0-.07,0-.09.08A.17.17,0,0,0,35.28,58.68Zm-.35-1.87c0-.09-.07-.15-.13-.1a.21.21,0,0,0-.12.19c0,.07,0,.1.1.08A.2.2,0,0,0,34.93,56.81Zm-.32-.64v0a.13.13,0,0,0-.15-.1.15.15,0,0,0-.11.14.14.14,0,0,0,.14.09C34.56,56.27,34.59,56.24,34.61,56.17ZM34.87,58,35,58a.46.46,0,0,1-.2-.49l-.13.11c0,.11.07.22.11.32A.09.09,0,0,0,34.87,58Zm.79,1.39.11.16s0,.08,0,.09.07,0,.1,0h0c-.16-.07-.13-.19-.07-.32a.3.3,0,0,1-.33,0,.06.06,0,0,0,0,.06Zm-1.48-3.05.08.12.15-.07a.21.21,0,0,1-.15-.23l-.11.11Zm.69.9,0,.2s.06,0,0-.07,0-.18-.07-.28l-.08,0ZM34.61,57l0-.07c-.07.05-.07.05,0,.14l.08,0Zm-.3-1c.08-.08.08-.09,0-.16V56Zm.41.58,0-.06h0l0,.12h0Zm1.2,2.6h0Zm-1.65-3.11Zm.4.42Zm.2.9Z"/><path class="cls-11" d="M34.17,55.67a.53.53,0,0,0-.35,0l0-.08a.29.29,0,0,0-.29-.2l-.13,0a1.67,1.67,0,0,0-1-.28,1.87,1.87,0,0,0-1,.35,3,3,0,0,0-.67.66c-.09.13-.16.27-.25.39a.63.63,0,0,1-.11.12l0,0a2.92,2.92,0,0,1-.83,1.2,1.83,1.83,0,0,1-.81.44,1.9,1.9,0,0,1-.25,0c-.06,0,0-.07,0-.1s.05,0,.07,0a1.19,1.19,0,0,0,.55-.18,2.79,2.79,0,0,0,.92-.92c.06-.09.1-.19.15-.28l.09-.2a0,0,0,0,0,0,0,.44.44,0,0,1,.05-.4A2.69,2.69,0,0,1,31.49,55a2,2,0,0,1,1.13-.22,2.06,2.06,0,0,1,1.09.44,2.45,2.45,0,0,1,.46.45Z"/><path class="cls-10" d="M30.12,56.88c-.05.09-.09.19-.15.28a2.79,2.79,0,0,1-.92.92,1.19,1.19,0,0,1-.55.18s-.05,0-.07,0l.36-.21c.07,0,.14-.1.22-.14a1.62,1.62,0,0,1,0,.19h0s.06-.05.07-.09a.3.3,0,0,1,.27-.21c.05,0,.08,0,.11-.08h-.18l-.09,0a3.41,3.41,0,0,0,.5-.58l0,0a.22.22,0,0,1,0,.08.37.37,0,0,0,0,.25.58.58,0,0,0,.05-.14.59.59,0,0,1,.1-.28.45.45,0,0,1,.24-.14Z"/><path class="cls-11" d="M35.4,58v.08a.13.13,0,0,1-.1.12c-.06,0-.12,0-.14-.07a.58.58,0,0,1,0-.18.11.11,0,0,1,.17-.07l.07,0A.2.2,0,0,1,35.4,58Z"/><path class="cls-12" d="M30.26,57.43l-.12.09a.29.29,0,0,1-.25.06.06.06,0,0,1,.07-.07.42.42,0,0,0,.31-.39s0-.09,0-.13a.32.32,0,0,1,0-.09.26.26,0,0,1,.07.23c0,.07,0,.15-.05.22A.22.22,0,0,1,30.26,57.43Z"/><path class="cls-12" d="M30.12,56.87a.55.55,0,0,0-.24.15.59.59,0,0,0-.1.28.58.58,0,0,1-.05.14.37.37,0,0,1,0-.25.22.22,0,0,0,0-.08l.11-.18.06,0a.47.47,0,0,1,.24-.1Z"/><path class="cls-11" d="M29.27,58.33l-.05,0-.14,0c0-.06.07-.06.12-.05a.31.31,0,0,0,.32-.18s.05-.07.09-.11a.36.36,0,0,1-.06.25h0s0,0,0,0Z"/><path class="cls-11" d="M29.18,57.73l.09,0h.18s-.06.08-.11.08a.3.3,0,0,0-.27.21s0,.06-.07.09h0a1.42,1.42,0,0,0,0-.2Z"/><path class="cls-10" d="M29.53,58.2s0,0,0,0Z"/><path class="cls-11" d="M39,59.59a1.88,1.88,0,0,1-.59.46,2.48,2.48,0,0,1-1.63.08.18.18,0,0,1-.08-.07.38.38,0,0,0-.38-.14.26.26,0,0,0-.23-.33l.18-.11.07,0a2,2,0,0,0,.75.3,1.92,1.92,0,0,0,1.46-.26,3.37,3.37,0,0,0,.37-.29l.08-.06a.09.09,0,0,1,.13,0,.08.08,0,0,1,0,.11Z"/><path class="cls-11" d="M34.72,58.39a.44.44,0,0,1,.3.37A.41.41,0,0,1,35,59a.21.21,0,0,1-.32.12.52.52,0,0,1-.22-.53A.21.21,0,0,1,34.72,58.39Z"/><path class="cls-11" d="M33.76,56.82a.39.39,0,0,1-.18-.37.23.23,0,0,1,.34-.21.4.4,0,0,1,.22.24s0,.05,0,.08a.84.84,0,0,0,0,.2c0,.07,0,.09-.09.11A.26.26,0,0,1,33.76,56.82Z"/><path class="cls-11" d="M34.62,58.15a.24.24,0,0,1-.3-.1.42.42,0,0,1-.09-.36.22.22,0,0,1,.33-.13.48.48,0,0,1,.14.48S34.65,58.11,34.62,58.15Z"/><path class="cls-11" d="M33.66,55.58a.34.34,0,0,1-.13.49.21.21,0,0,1-.24,0,.22.22,0,0,1-.08-.24.37.37,0,0,1,.15-.25A.24.24,0,0,1,33.66,55.58Z"/><path class="cls-11" d="M35.18,59.46c-.17,0-.24-.06-.24-.23a.33.33,0,0,1,.3-.32c.15,0,.23.09.21.24A.37.37,0,0,1,35.18,59.46Z"/><path class="cls-11" d="M35.69,60.08a.17.17,0,0,1,0-.29.41.41,0,0,1,.42-.1.15.15,0,0,1,.09.24.39.39,0,0,1-.27.18A.31.31,0,0,1,35.69,60.08Z"/><path class="cls-11" d="M34.21,57a.21.21,0,0,1,.19,0,.12.12,0,0,1,.06.18.7.7,0,0,0-.08.2,0,0,0,0,0,0,0,.3.3,0,0,1-.3.08.2.2,0,0,1-.07-.25A.41.41,0,0,1,34.21,57Z"/><path class="cls-11" d="M33.85,56.19a.18.18,0,0,1-.15-.14.2.2,0,0,1,.08-.2.43.43,0,0,1,.28-.09.15.15,0,0,1,.15.21A.34.34,0,0,1,33.85,56.19Z"/><path class="cls-11" d="M35.67,59.71a.22.22,0,0,1-.32.13.28.28,0,0,1-.07-.33.22.22,0,0,1,.26-.13.19.19,0,0,1,.14.17A.45.45,0,0,1,35.67,59.71Z"/><path class="cls-11" d="M34.52,56.85c-.05,0-.09.11-.17.1s-.18-.09-.17-.21a.32.32,0,0,1,.24-.29.16.16,0,0,1,.17.14A.32.32,0,0,1,34.52,56.85Z"/><path class="cls-11" d="M36.59,60.29a.32.32,0,0,1-.4,0,.15.15,0,0,1,0-.25.35.35,0,0,1,.3,0A.16.16,0,0,1,36.59,60.29Z"/><path class="cls-11" d="M34.75,58.06h.17a.16.16,0,0,1,.14.09.14.14,0,0,1,0,.16.22.22,0,0,1-.35,0C34.63,58.24,34.66,58.14,34.75,58.06Z"/><path class="cls-11" d="M35.62,58.87a.14.14,0,0,1,.2,0,.2.2,0,0,1,0,.32.13.13,0,0,1-.19-.07A.25.25,0,0,1,35.62,58.87Z"/><path class="cls-11" d="M35.08,57.87a.31.31,0,0,1-.14-.39.12.12,0,0,1,.19,0,.28.28,0,0,1,0,.28A.12.12,0,0,1,35.08,57.87Z"/><path class="cls-11" d="M34.73,57.44l-.12.07a.11.11,0,0,1-.14-.12.28.28,0,0,1,.14-.22.11.11,0,0,1,.18.09A.64.64,0,0,1,34.73,57.44Z"/><path class="cls-11" d="M36,59.5c-.08,0-.09,0-.06-.12s.15-.19.23-.16a.13.13,0,0,1,.09.07.17.17,0,0,1,0,.12A.32.32,0,0,1,36,59.5Z"/><path class="cls-12" d="M35.4,58.77l.09-.06.06.08,0,.06,0,.06c-.1-.12-.22-.09-.33-.08L35,58.47l.17-.17,0,0a.29.29,0,0,0-.05.36A.2.2,0,0,0,35.4,58.77Z"/><path class="cls-11" d="M35.27,58.67a.16.16,0,0,1-.06-.2s.06-.08.09-.08.08,0,.11,0a.18.18,0,0,1,0,.2S35.34,58.7,35.27,58.67Z"/><path class="cls-11" d="M34.93,56.81a.2.2,0,0,1-.15.17c-.07,0-.11,0-.1-.08a.21.21,0,0,1,.12-.19C34.86,56.66,34.92,56.72,34.93,56.81Z"/><path class="cls-11" d="M34.61,56.18c0,.06,0,.09-.12.08a.14.14,0,0,1-.14-.09.15.15,0,0,1,.11-.14.13.13,0,0,1,.15.1Z"/><path class="cls-12" d="M34.86,58a.1.1,0,0,1,0,0c0-.1-.07-.21-.11-.33l.13-.1A.46.46,0,0,0,35,58Z"/><path class="cls-12" d="M35.65,59.34l-.1-.05a.06.06,0,0,1,0-.06.3.3,0,0,0,.33,0c-.06.13-.09.25.07.32h0s-.08,0-.1,0,0-.06,0-.09Z"/><path class="cls-12" d="M34.18,56.29l0-.07.11-.11a.21.21,0,0,0,.15.23l-.15.07Z"/><path class="cls-12" d="M34.87,57.18l-.08-.11.08,0c0,.1.05.19.07.28s0,.06,0,.07S34.88,57.25,34.87,57.18Z"/><path class="cls-12" d="M34.61,57l0,0-.08,0c-.06-.09-.06-.09,0-.14Z"/><path class="cls-12" d="M34.31,56v-.16C34.39,55.93,34.39,55.94,34.31,56Z"/><path class="cls-12" d="M34.64,56.44l-.12-.08c.09,0,.09,0,.12.08Z"/><path class="cls-12" d="M34.72,56.61v0h0l0-.12h0Z"/><path class="cls-12" d="M34.65,56.47v0h0s0,0,0,0Z"/><path class="cls-12" d="M35.92,59.21h0Z"/><path class="cls-12" d="M35.87,59.26v0s0,0,0,0Z"/><path class="cls-12" d="M34.65,56.47h0Z"/><path class="cls-11" d="M34.17,55.67h0Z"/><path class="cls-12" d="M34.27,56.09Z"/><path class="cls-12" d="M35.87,59.26h0Z"/><path class="cls-12" d="M34.67,56.51Z"/><path class="cls-12" d="M34.87,57.41Z"/><ellipse class="cls-13" cx="59.48" cy="21.9" rx="7.67" ry="7.55"/><ellipse class="cls-6" cx="59.21" cy="21.9" rx="6.34" ry="6.23"/><ellipse class="cls-14" cx="7.93" cy="45.22" rx="7.81" ry="7.68"/><ellipse class="cls-6" cx="7.92" cy="45.22" rx="6.45" ry="6.35"/><path class="cls-15" d="M7.76,42.06a1.3,1.3,0,0,1,.88.31s.14,0,.2-.35,0-.56-.16-.77a.81.81,0,0,0-.53-.18.9.9,0,0,0-.39.1.87.87,0,0,0-.39-.1.76.76,0,0,0-.51.18c-.22.21-.22.42-.18.77s.2.35.2.35A1.3,1.3,0,0,1,7.76,42.06Z"/><path class="cls-16" d="M7.11,41.11a1,1,0,0,0-.25.15c-.22.2-.22.41-.18.76a.93.93,0,0,0,.06.18.88.88,0,0,0,.37-1.09Z"/><path class="cls-17" d="M7.37,41.07a.93.93,0,0,1,.23,0h0a.29.29,0,0,0-.33-.24c-.12,0-.1.14-.06.22a.34.34,0,0,1,.14,0Z"/><path class="cls-17" d="M7.29,40.87h.09s0,0,0,0-.31-.33-.52-.31c0,0,0,0,0,.06s0,0,0,0,.33.14.43.25l0,0Z"/><path class="cls-18" d="M7.07,44.06a.81.81,0,0,0,.69.49Z"/><path class="cls-17" d="M6.83,42.53a.92.92,0,0,1-.49-.39s-.1-.06-.13,0a.09.09,0,0,0,0,.14s.31.52.6.62A1.87,1.87,0,0,1,6.83,42.53Zm-.09,1.38a1.58,1.58,0,0,0-.57.13.1.1,0,0,0,0,.14.09.09,0,0,0,.14,0,1.68,1.68,0,0,1,.47-.08l.31-.06a1.09,1.09,0,0,1-.1-.19Z"/><path class="cls-17" d="M6.23,42s0-.06,0-.1l-.06,0v-.15s0,0,0,0a.33.33,0,0,1,0-.14l-.06,0s0-.08,0-.12a.06.06,0,0,1,0,0s0-.07,0-.11,0,0,0,0a.22.22,0,0,1,0-.1c-.06,0-.06-.06,0-.1H6s0-.08,0-.13H6s0-.08,0-.1a.07.07,0,0,1-.06,0s0-.08,0-.1l0,0V41s0,0,0,0,0,0,0-.06-.06,0-.06,0a.18.18,0,0,1,0-.09s0,0,0,0,0,0,0-.06-.06,0-.06,0,0,0,0-.06,0,0-.06,0,0,0,0,0a.07.07,0,0,0-.06,0,.45.45,0,0,0,0-.08s-.08,0-.08-.06,0,0-.05,0,0,0,0-.06a.07.07,0,0,1-.06,0s0,0,0-.06,0,0,0,0a0,0,0,0,0,0,0v-.09l-.06,0s-.06-.12-.08-.1,0,.13,0,.15,0,0,0,0a2.38,2.38,0,0,0,.73.41,2.79,2.79,0,0,0,.37,1.09,0,0,0,0,1,0,0,.07.07,0,0,1,.06,0,.1.1,0,0,1,0-.08Zm-.08,2.16a.12.12,0,0,1,0-.08v0a1.77,1.77,0,0,1-.34.16,1.51,1.51,0,0,0-.52.31,4.88,4.88,0,0,0-1.22.13s0,0,0,0v0a.15.15,0,0,0,0,.1s0,0,0,0,0,0,0,0,0,0,0,0,0,0,0-.06a.07.07,0,0,0,0,0s0,0,.06,0,0,0,0,0,0,0,.06-.06,0,0,0,0,0,0,.06,0l.06,0s0,0,.08,0,.08,0,.12,0,0,0,.06,0h0l0,0a0,0,0,0,1,0,0l.06,0,0,0,0,0s0,0,0,0,0,0,0,0,0,0,.06,0l.06,0,0,0,0,0s0,0,0,0l0,0a.21.21,0,0,1,0-.11.07.07,0,0,0,.06,0s0-.06,0-.06,0,0,0,0,0,0,0-.06,0,0,0,0a.1.1,0,0,1,0-.08s0,0,0,0,0-.06,0-.06,0,0,0,0a.15.15,0,0,1,0-.06v0c0-.09.08,0,.1,0s0-.07,0,0,0,0,.06,0,0-.07.06-.05,0,0,0,0,0,0,0,0l0,0s0,0,0,0,0,0,0,0Zm.76,4.08a.09.09,0,0,1,0-.15c-.06,0-.06,0,0-.1s-.11,0-.07-.1l-.1,0a.06.06,0,0,1,0,0s0-.06,0-.09-.06,0-.08-.06a0,0,0,0,0,0,0,.15.15,0,0,1,0-.08s0,0,0,0,0-.1,0-.14H6.52s0-.09,0-.11,0,0-.08,0,0-.06,0-.08a.15.15,0,0,0,0-.1h0a.1.1,0,0,1,0,0s0-.09,0-.09,0,0,0,0,0-.06,0-.1H6.33a.15.15,0,0,1,0-.1c-.14,0,0-.07-.06-.11s0,0,0,0v-.14H6.21s0,0,0-.06A3.48,3.48,0,0,0,6.64,48a.4.4,0,0,1,0,.43l0,0L6,49.27c0,.06,0,.14,0,.14a.16.16,0,0,0,.08.08.34.34,0,0,1,0-.14s.06,0,.1,0,0-.14.08-.1v-.09s.06,0,.08,0,0-.06,0-.08a.09.09,0,0,1,.09,0c0-.14,0-.1.12-.12-.06-.11.06-.13.14-.15s0-.14.1-.14,0-.13.07-.13,0-.1,0-.1,0-.1,0-.12Z"/><path class="cls-16" d="M8.4,41.11a1.84,1.84,0,0,1,.28.15c.2.2.2.41.16.76a.93.93,0,0,1-.06.18.88.88,0,0,1-.38-1.09Z"/><path class="cls-17" d="M8.15,41.07l-.24,0h0a.31.31,0,0,1,.34-.24c.12,0,.1.14.08.22a.44.44,0,0,0-.16,0Z"/><path class="cls-17" d="M8.23,40.87h-.1s0,0,0,0,.32-.33.53-.31c0,0,0,0,0,.06s0,0,0,0-.33.14-.43.25A0,0,0,0,0,8.23,40.87Z"/><path class="cls-18" d="M8.44,44.06a.77.77,0,0,1-.68.49Z"/><path class="cls-15" d="M8.62,44.47a1.24,1.24,0,0,0-.18-.41,2.22,2.22,0,0,0,.28-.93,1.86,1.86,0,0,0-.08-.76,1.3,1.3,0,0,0-.88-.31,1.29,1.29,0,0,0-.88.31,1.86,1.86,0,0,0-.08.76,2.23,2.23,0,0,0,.27.93,2,2,0,0,0-.18.41,4,4,0,0,0-.25,2.23c.22.68.65,1.4,1.12,1.4s.9-.72,1.11-1.4A3.86,3.86,0,0,0,8.62,44.47Z"/><path class="cls-18" d="M8.68,42.53a.88.88,0,0,0,.49-.39.1.1,0,0,1,.14,0,.11.11,0,0,1,0,.14s-.32.52-.61.62c0-.12,0-.25-.06-.35Z"/><path class="cls-17" d="M8.54,43.87a.49.49,0,0,1-.1.19l.32.06a2,2,0,0,1,.49.08.08.08,0,0,0,.12,0,.1.1,0,0,0,0-.14,1.47,1.47,0,0,0-.57-.13ZM9.31,42s0-.06,0-.1l.06,0v-.15a.07.07,0,0,1,.06,0c0-.06,0-.1,0-.14l0,0s0-.08,0-.12a.06.06,0,0,0,0,0,.26.26,0,0,0,0-.11s0,0,.06,0a.15.15,0,0,1,0-.1c.06,0,0-.06,0-.1h.06a.28.28,0,0,1,0-.13h.06s0-.08,0-.1a.07.07,0,0,0,.06,0s0-.08,0-.1l0,0V41s0,0,0,0,0,0,0-.06l.07,0s0-.07,0-.09a.07.07,0,0,0,.06,0V40.8a.12.12,0,0,1,.08,0v-.06s.06,0,.06,0,0,0,0,0a.07.07,0,0,1,.06,0,.45.45,0,0,1,0-.08c.06,0,.08,0,.08-.06s0,0,.06,0,0,0,0-.06a.06.06,0,0,0,.05,0s0,0,0-.06l.06,0v0s0-.07,0-.09l.06,0s.06-.12.08-.1,0,.13,0,.15v0a2.74,2.74,0,0,1-.75.41,2.55,2.55,0,0,1-.35,1.09s0,0,0,0a.07.07,0,0,0-.06,0A.28.28,0,0,0,9.31,42Z"/><path class="cls-17" d="M9.37,44.18a.12.12,0,0,0,0-.08v0a2.21,2.21,0,0,0,.35.16,1.8,1.8,0,0,1,.53.31,5.07,5.07,0,0,1,1.22.13,0,0,0,0,1,0,0v0a.15.15,0,0,1,0,.1s0,0,0,0,0,0,0,0a.07.07,0,0,0,0,0l-.06-.06a.07.07,0,0,1,0,0s0,0-.06,0,0,0,0,0,0,0-.06-.06,0,0,0,0l0,0s0,0,0,0-.06,0-.1,0-.08,0-.12,0,0,0-.06,0h0l0,0,0,0-.06,0s0,0,0,0a.07.07,0,0,0-.06,0l0,0,0,0s0,0-.06,0,0,0-.06,0a0,0,0,0,0,0,0l0,0,0,0-.06,0c0-.05,0-.07,0-.11a.07.07,0,0,1-.06,0s0-.06,0-.06,0,0,0,0,0,0,0-.06,0,0,0,0a.1.1,0,0,0,0-.08s0,0,0,0,0-.06,0-.06,0,0,0,0,0,0,0-.06a0,0,0,0,1,0,0c0-.09-.06,0-.1,0s0-.07,0,0,0,0-.06,0,0-.07,0-.05,0,0-.05,0,0,0,0,0,0,0-.06,0,0,0,0,0,0,0,0,0ZM8.6,48.26a.08.08,0,0,0,0-.15c.08,0,.08,0,.06-.1s.09,0,.08-.1l.07,0s0,0,0,0a.16.16,0,0,1,0-.09c0-.06.08,0,.1-.06v0a.15.15,0,0,0,0-.08s0,0,.06,0a.29.29,0,0,0,0-.14H9s0-.09,0-.11,0,0,.08,0,0-.06,0-.08a.87.87,0,0,1,0-.1h0s0,0,0,0,0-.09,0-.09,0,0,0,0a.18.18,0,0,1,0-.1h0a.87.87,0,0,0,0-.1c.11,0,0-.07,0-.11s0,0,0,0a.3.3,0,0,1,0-.14h0s0,0,0-.06a3.81,3.81,0,0,1-.45,1.56.29.29,0,0,0,0,.39c.08.11.73.89.73.89s0,.08,0,.08a.16.16,0,0,1-.08.08s0-.1,0-.14-.08,0-.1,0,0-.14-.1-.1,0-.07,0-.09,0,0-.07,0,0-.06,0-.08-.06,0-.12,0,0-.1-.12-.12c.06-.11-.06-.13-.12-.15s0-.14-.12-.14,0-.13-.07-.13,0-.1,0-.1,0-.1,0-.12Zm.3-2.74-.06-.33a.28.28,0,0,1,0,.12c-.1,0-.18.11-.28.15s-.39.1-.45,0a.1.1,0,0,1-.15,0,.31.31,0,0,1-.26.08l-.08,0-.08,0-.08,0a.08.08,0,0,1-.07,0,.29.29,0,0,1-.1-.12s-.1.08-.12.08,0-.06-.08-.08-.1.06-.13-.07c-.06,0-.08,0-.1-.06s-.08,0-.08-.08h0s0,0,0-.06l-.06.33a.28.28,0,0,0,0,.12.41.41,0,0,0,.16.27c.07.06.07.1.17.12a2.38,2.38,0,0,0,.26,0,.6.6,0,0,0,.19,0l.16,0s0-.06.06-.06,0,0,.08.06.08,0,.08,0a.33.33,0,0,1,.27-.08c.14,0,.28-.09.41-.11s.08,0,.12-.1a0,0,0,0,0,0,0,.41.41,0,0,0,.26-.33Z"/><path class="cls-17" d="M9,46.16a.24.24,0,0,1-.08.18.06.06,0,0,0,0-.06c0,.13-.14.15-.24.19s-.29.14-.39.1-.06.06-.1,0a.14.14,0,0,1-.18.06s-.19-.08-.21-.12a.19.19,0,0,1-.18,0,.15.15,0,0,1-.23,0,.12.12,0,0,1-.16,0s-.08,0-.1,0-.06,0-.1,0a.15.15,0,0,1-.07-.09.07.07,0,0,0-.06,0s-.06-.08-.1-.1-.1,0-.14,0l0,.08a.37.37,0,0,1,0-.14,1.55,1.55,0,0,0,.08.53.6.6,0,0,0,.12.11c0,.06.08.08.1.12s0,0,0,.06S7,47,7,47s.06.06.1.08.06,0,.08,0,.1.09.08.15.08-.08.14-.11a1,1,0,0,1,.15,0s.06,0,.1.07,0,0,.1,0,.06,0,.12,0S8,47,8,47.17c.08-.09.08-.05.16-.05s.12-.12.2,0A.08.08,0,0,1,8.46,47c.06-.1.16-.12.24-.18a.36.36,0,0,0,.17-.15A1.29,1.29,0,0,0,9,46.3v-.14ZM8.4,47.44l-.29,0H8s0,0-.07,0-.16-.1-.22-.08-.12.12-.2,0c0,.1-.19,0-.25,0s-.12.06-.12,0l-.06,0a1.1,1.1,0,0,0-.14-.09c.06.09.1.17.16.25l0,.06v.07s0,0,0,0,0,0,0,0,0,0,0,.06.06,0,.06.08h0V48c.06,0,.08,0,.08.07a.09.09,0,0,1,.08.1c.05-.06.07,0,.05.08s.06,0,0,.06.06-.06.08-.06,0,.08,0,.14,0-.1.06-.12,0,0,0,.06,0-.06,0-.06,0,0,0,.06.08,0,.1,0,0-.08,0-.1a.1.1,0,0,1,.07.06c0-.08,0-.14.1-.06v0c0-.06,0-.1.08,0s0-.14.06-.14a.23.23,0,0,1,.06-.09s.06,0,.06,0,0,0,0-.06a.25.25,0,0,0,0-.12h0a3,3,0,0,0,.27-.44.61.61,0,0,1-.22.13Z"/><g class="cls-19"><path class="cls-20" d="M11.11,46.28a13.77,13.77,0,0,0-1.65-2.16c-.23-.39-.58-.35-.76-.75l0,0a2.05,2.05,0,0,1-.22.66l0,.1c.1,0,.26.2.26.2a.23.23,0,0,0-.08.11s0,0,0,.06a2.88,2.88,0,0,0-.12,2.27,2.44,2.44,0,0,0,.16.41s0,.06,0,.1h0s0,.06,0,.1l0,0a.37.37,0,0,0,0,.11h0a.44.44,0,0,0,.06.1,2.89,2.89,0,0,0,.35.58s0,0,0,0l.06.08s0,0,0,0a.16.16,0,0,1,.08.08.1.1,0,0,1,0,0,.7.7,0,0,1,.06.09s0,0,0,0a.28.28,0,0,1,.06.08l0,0a.28.28,0,0,0,.06.08v0a1.77,1.77,0,0,1,.14.17s0,0,0,0l.06.06s0,0,0,.06l.05.05s0,0,0,.06l.06,0,.06.06,0,0s0,0,.06,0a0,0,0,0,0,0,0l.06.07s0,0,0,0,0,0,.06,0l0,0a.57.57,0,0,0,.09.08,0,0,0,0,1,0,0l.08,0,0,0,.06,0s0,0,0,0l.06,0,0,0L11,50h0a.07.07,0,0,0,.06,0s0,0,0,0h.14c.73-.06.22-2.93-.1-3.71ZM6.83,44.47a.58.58,0,0,0,0-.11s.15-.24.23-.2l.06-.1a1.76,1.76,0,0,1-.24-.69h0c-.15.4-.53.36-.74.75a12.65,12.65,0,0,0-1.65,2.16c-.31.78-.84,3.65-.12,3.71h.14s0,0,0,0l0,0h0l0,0s0,0,0,0l0,0,0,0,.06,0,0,0s.06,0,.08,0l0,0,.1-.06s0,0,0,0l.06,0s0,0,0,0l.06-.07s0,0,.06,0l0,0,.06,0s0,0,0-.06l.06,0s0,0,0-.06,0,0,.06-.05,0,0,0-.06L5.62,49l0,0,.12-.14s0,0,0,0l.08-.06a.07.07,0,0,1,0,0A.28.28,0,0,1,6,48.63l0,0,.06-.09s0,0,0,0,.06-.06.08-.08,0,0,0,0l.06-.08s0,0,0,0a5.72,5.72,0,0,0,.35-.56l0,0s0-.06,0-.08l0,0a1.09,1.09,0,0,0,.06-.11v0s0-.06,0-.1h0a.38.38,0,0,1,0-.1A2.44,2.44,0,0,0,7,46.8,2.69,2.69,0,0,0,6.83,44.47Z"/></g><path class="cls-21" d="M7,43.56a1.67,1.67,0,0,1-.06-.82.45.45,0,0,1,.34-.43A1.33,1.33,0,0,1,8,42.2c.16,0,.45.09.45.29-.29.06-.63,0-.86.29a.83.83,0,0,0-.24.72c0,.1.24.6,0,.58s-.31-.33-.35-.48Z"/><path class="cls-22" d="M7.86,42.26c-.22.09-.49,0-.67.21a.61.61,0,0,0-.16.66c.08-.23,0-.52.28-.58a.45.45,0,0,0,.25-.12c.06-.06.16-.06.2-.12Zm.13,0s-.13,0-.07.08.09,0,.07-.06Zm-1.06-.93c-.1.06-.06.16,0,.14s0-.1,0-.12Zm.08,0s0,0,0,.07.09,0,0-.07Zm-.1.27s0,.05,0,.07,0,0,0-.07Zm1.55-.24s-.06.06-.06.1.13,0,.06-.08Zm0-.11s0,0,0,.06h.07v0Zm0,.29a.07.07,0,0,0,0,.06.08.08,0,0,1,.07,0l0,0Z"/><path class="cls-21" d="M8.25,41.18c-.08.08-.06.3,0,.41s.12.22.17.37,0,.08-.09.08a.85.85,0,0,1-.34-.1c-.07-.09,0-.31-.07-.41a.26.26,0,0,0-.18-.23c-.08,0-.37,0-.41-.06a.36.36,0,0,1,.35,0,.4.4,0,0,0,.22,0s0,0,.09-.06a.35.35,0,0,1,.3,0Z"/><path class="cls-22" d="M8,41.24c-.19,0,0,.53,0,.63,0-.18-.08-.32,0-.51s.06-.08.08-.12.06,0,0,0,0,0-.06,0Zm.14-.06s0,0,0,0,0,0,0,0h0Z"/><path class="cls-21" d="M7,44.6c0-.36.29-.05.41,0a.74.74,0,0,0,.29.08,1.8,1.8,0,0,0,.35-.08c.18,0,0,.18-.08.22s-.35,0-.51.19-.09.23-.21.1a1,1,0,0,1-.16-.39Z"/><path class="cls-23" d="M6.86,43.87a.91.91,0,0,0-.14.45A.55.55,0,0,1,7,44.06a.38.38,0,0,1,0-.13Z"/><path class="cls-22" d="M9.65,45.44c0,.06-.06.08-.06.16a2.77,2.77,0,0,0,.09.33c.06.23.08.5.14.74a6.89,6.89,0,0,0,.26.85,4,4,0,0,1,.19.55,3.34,3.34,0,0,1,.06.62c0,.31,0,.54.24.75s.12-.52.08-.6a6.09,6.09,0,0,0-.2-1.05A7,7,0,0,1,10.1,47a5.25,5.25,0,0,1-.12-.62,3.41,3.41,0,0,0-.24-.63Zm-.44.08a5,5,0,0,1,.29.82c.08.31.12.66.18,1a2.77,2.77,0,0,0,.12.41,2.61,2.61,0,0,1,.08.42,1.85,1.85,0,0,1,.11.78c0-.31-.35-.47-.51-.68s0-.17,0-.27a3.87,3.87,0,0,0,0-.68c0-.2,0-.41-.06-.62s-.09-.37-.11-.55a5.27,5.27,0,0,0-.14-.81Zm-.35-.93c0,.23,0,.48.06.7s0,.44,0,.64a1.3,1.3,0,0,1,0,.52c-.06.2-.08.45-.16.64a8.73,8.73,0,0,1-.3-1,2.15,2.15,0,0,1,0-.62c0-.23.14-.44.18-.66Zm.31,2.25c-.06.14,0,.39,0,.56a3,3,0,0,1,0,.43A1.19,1.19,0,0,1,9,47.54c-.06-.12,0-.29.06-.43Zm2.22,1.66a2.3,2.3,0,0,1-.1,1c-.06.12-.14.18-.18,0a6.27,6.27,0,0,1-.09-.71,2.07,2.07,0,0,0-.12-.61c-.06-.17-.16-.33-.24-.5s-.15-.62-.25-.93c.12.21.19.41.31.64a7.45,7.45,0,0,1,.55.83Zm-1.16-3.27a.37.37,0,0,0,.14.23c.06.1.14.19.19.29a3.68,3.68,0,0,1,.3.39,6.09,6.09,0,0,1,.28.78c0,.17.15.52.11.66-.08,0-.23-.41-.27-.47a2.11,2.11,0,0,0-.18-.27,4,4,0,0,1-.27-.7,2.91,2.91,0,0,0-.18-.35,2.12,2.12,0,0,0-.14-.31c-.1-.16-.24-.29-.33-.45a.68.68,0,0,0,.27.2Zm-.41-.49c-.16-.1-.26-.29-.39-.41s-.22-.17-.2-.31c.08.12.22.22.27.37Zm-1.08-1.1c.06,0,.21.15.23.21a.63.63,0,0,1,0,.27c-.09-.11,0-.29-.19-.4Z"/><path class="cls-23" d="M8.64,43.87a1.21,1.21,0,0,1,.16.45.74.74,0,0,0-.27-.26c0-.05.05-.09.05-.13Z"/><path class="cls-24" d="M6.56,46c-.21,0-.35.31-.39.44a.19.19,0,0,0,0,.14.13.13,0,0,0,.14,0,.83.83,0,0,1,.21-.12V46"/><path class="cls-24" d="M6.58,47.56s0,0,0-.06H6.52s0-.09,0-.11,0,0-.08,0h0s0-.06,0-.08a.28.28,0,0,0,0-.1h0a.07.07,0,0,1,0,0s0-.09,0-.09,0,0,0,0,0-.06,0-.1H6.33a.15.15,0,0,1,0-.1c-.14,0,0-.06-.06-.11s0,0,0,0v-.14H6.21s0,0,0-.06a3.09,3.09,0,0,0,.31,1.17m.26-3.75a1.64,1.64,0,0,0-.57.13.1.1,0,0,0,0,.14s.08.07.14,0a1.68,1.68,0,0,1,.47-.08l.31-.06a.82.82,0,0,1-.1-.19Z"/><path class="cls-24" d="M6.05,44.31l0,0s0,0,0,0,0,0,0,0,0,0,0,0,0,0,0,0a.12.12,0,0,1,0-.08v0m.65,3a3.71,3.71,0,0,1-.14-.39,3.75,3.75,0,0,1,.19-2m2.52,1.74c0-.15-.2-.5-.38-.37,0,.08,0,.24,0,.35l.24.12a.1.1,0,0,0,.12,0c.06,0,0-.08,0-.14"/><path class="cls-24" d="M8.93,47.56s0,0,0-.06H9s0-.08,0-.11,0,0,.08,0h0s0-.06,0-.08a.87.87,0,0,1,0-.1h0s0,0,0,0,0-.09,0-.09,0,0,0,0a.18.18,0,0,1,0-.1h0a.87.87,0,0,0,0-.1c.12,0,0-.06,0-.11s0,0,0,0a.3.3,0,0,1,0-.14h0s0,0,0-.06a3.46,3.46,0,0,1-.28,1.21m-.53-3.83a.42.42,0,0,1-.09.19l.31.06a2,2,0,0,1,.49.08.07.07,0,0,0,.12,0,.1.1,0,0,0,0-.14,1.47,1.47,0,0,0-.57-.13Z"/><g class="cls-19"><path class="cls-25" d="M6.82,43.38c-.16.39-.53.35-.75.74a13.77,13.77,0,0,0-1.65,2.16c-.31.78-.84,3.65-.12,3.71S6.72,47.85,7,46.8a2.76,2.76,0,0,0-.21-2.44s.15-.24.23-.2"/></g><path class="cls-25" d="M6.41,44.14a10,10,0,0,1-.89,1.36c-.31.55-.55,1.15-.88,1.71A5.51,5.51,0,0,0,4,48.3"/><path class="cls-25" d="M6.15,44.63c-.22.46-.35.79-.57,1.24A17.26,17.26,0,0,0,5,47.6a6.19,6.19,0,0,0-.41,1.63c0,.25,0,.48,0,.7M6.19,48.3c0-.29,0-.78,0-1.09,0-.48.12-1,.19-1.42s.08-1,.2-1.5a1,1,0,0,1,.31-.58"/><path class="cls-25" d="M6.36,46.1a9.46,9.46,0,0,0,.22,1c0,.12.1.24.08.37M5.27,49.42a5.65,5.65,0,0,1,.35-1.92c.18-.56.22-1.15.37-1.73s.38-.91.46-1.38c0-.15,0-.58,0-.6"/><path class="cls-25" d="M5.89,45.17a.2.2,0,0,0,.22.23m-.81-.35c.28.08.65-.43.85-.62a.59.59,0,0,0,.21-.23m.75-3.08a.74.74,0,0,0-.25.14c-.22.2-.22.41-.18.76a.93.93,0,0,0,.06.18.87.87,0,0,0,.37-1.08m.26,0a.86.86,0,0,1,.23,0h0a.29.29,0,0,0-.33-.25c-.12,0-.1.14-.06.23a.24.24,0,0,1,.14,0m-.3,3a.81.81,0,0,0,.69.49M6.6,44c.16,0,.22-.1.3.08m-.07-1.59a.87.87,0,0,1-.49-.39.09.09,0,0,0-.13,0,.09.09,0,0,0,0,.14,1.53,1.53,0,0,0,.6.62,2,2,0,0,1,0-.35m0,1.83c-.08.11-.2.07-.2.17"/><g class="cls-19"><path class="cls-25" d="M6.23,42s0-.06,0-.1l-.06,0V41.8s0,0,0,0a.37.37,0,0,1,0-.15l-.06,0h0s0-.08,0-.12a.06.06,0,0,1,0,0,.87.87,0,0,0,0-.1s0,0,0,0a.26.26,0,0,1,0-.11s0-.06,0-.1H6s0-.08,0-.12H6s0-.09,0-.11a.07.07,0,0,1-.06,0s0-.08,0-.1l0,0V41s0,0,0,0,0,0,0-.06-.06,0-.06,0a.15.15,0,0,1,0-.08s0,0,0,0,0,0,0-.07-.06,0-.06,0,0,0,0-.06,0,0-.06,0,0,0,0,0a.07.07,0,0,0-.06,0,.45.45,0,0,0,0-.08s-.07,0-.07-.06,0,0-.06,0,0,0,0-.06a.07.07,0,0,1-.06,0s0,0,0-.06,0,0,0,0a0,0,0,0,0,0,0v-.09s0,0-.06.05-.06-.13-.08-.11,0,.13,0,.15,0,0,0,0a2.38,2.38,0,0,0,.73.41,3.06,3.06,0,0,0,.37,1.1,0,0,0,0,1,0,0,.07.07,0,0,1,.06,0,.15.15,0,0,1,0-.09"/></g><path class="cls-25" d="M6.07,44.12l-.27.12a1.57,1.57,0,0,0-.53.31,4.88,4.88,0,0,0-1.22.13s0,0,0,0H4v0H4a.15.15,0,0,0,0,.1s0,0,0,0,0,0,0,0,0,0,0,0,0,0,0-.06a.07.07,0,0,0,0,0s0,0,.06,0,0,0,0,0,0,0,.06-.06,0,0,0,0,0,0,.06,0l.06,0s0,0,.08,0,.08,0,.12,0,0,0,.06,0h0l0,0a0,0,0,0,1,0,0l0,0,0,0,0,0s0,0,0,0,0,0,0,0,0,0,.06,0l.06,0,0,0,.06,0s0,0,0,0l0,0s0-.06,0-.11a.07.07,0,0,0,.06,0s0-.06,0-.06,0,0,0,0,0,0,0-.06,0,0,0,0a.1.1,0,0,1,0-.08s0,0,0,0,0-.06,0-.06,0,0,0,0a.15.15,0,0,1,0-.06l0,0c0-.09.08,0,.1,0s0-.07,0,0m.62,3.44.1.2a.42.42,0,0,1,0,.44l0,0L6,49.27c0,.06-.06.14,0,.14A.22.22,0,0,0,6,49.5a.36.36,0,0,1,0-.15s.06,0,.1,0,0-.14.08-.1v-.08s.06,0,.08,0,0-.07,0-.09.06,0,.1,0,0-.1.11-.12c-.06-.1.06-.12.14-.15s0-.14.1-.14,0-.12.08-.12,0-.11,0-.11,0-.1,0-.12a.08.08,0,0,1,0-.14s0,0,0-.11-.12,0-.08-.1l-.1,0a.06.06,0,0,1,0,0s0-.06,0-.08-.06,0-.08-.06a0,0,0,0,0,0,0,.16.16,0,0,1,0-.09M9.15,46.1c-.06.35-.12.68-.19,1a1.2,1.2,0,0,0-.1.37m-1.1-5.44a1.34,1.34,0,0,1,.88.31s.14,0,.2-.35,0-.56-.16-.77a.79.79,0,0,0-.53-.18.9.9,0,0,0-.39.1h0a.87.87,0,0,0-.39-.1.76.76,0,0,0-.51.18c-.22.21-.22.42-.18.77s.2.35.2.35a1.35,1.35,0,0,1,.88-.31"/><path class="cls-25" d="M8.4,41.12a1.22,1.22,0,0,1,.28.14c.2.2.2.41.16.76a.93.93,0,0,1-.06.18.89.89,0,0,1-.38-1.08m-.25,0a1.29,1.29,0,0,0-.24,0h0c0-.17.22-.29.34-.25s.1.14.08.23a.3.3,0,0,0-.16,0m.3,3a.8.8,0,0,1-.69.49m-.88,0s0,0,0-.06a1.31,1.31,0,0,1,.17-.41h0a2.18,2.18,0,0,1-.27-.92,2,2,0,0,1,.08-.77m1.8,4.82c-.23.5-.57.91-.92.91s-.69-.39-.93-.89"/><path class="cls-24" d="M8.68,44.67a3.57,3.57,0,0,1,.2,2,3.44,3.44,0,0,1-.14.37"/><path class="cls-25" d="M8.64,42.37a2,2,0,0,1,.08.77,2.28,2.28,0,0,1-.27.92h0a1.75,1.75,0,0,1,.17.41.15.15,0,0,0,0,.08"/><path class="cls-25" d="M8.68,42.53a.84.84,0,0,0,.49-.39.1.1,0,0,1,.14,0,.11.11,0,0,1,0,.14c0,.05-.31.52-.61.62l-.06-.35m.08,1.83c.06.11.17.07.19.17"/><g class="cls-19"><path class="cls-25" d="M9.31,42s0-.06,0-.1l.06,0V41.8a.07.07,0,0,1,.06,0c0-.07,0-.11,0-.15l0,0h0s0-.08,0-.12a.06.06,0,0,0,0,0,.22.22,0,0,0,0-.1s0,0,.06,0,0-.07,0-.11,0-.06,0-.1h.06a.28.28,0,0,1,0-.12h.06s0-.09,0-.11a.07.07,0,0,0,.06,0s0-.08,0-.1l0,0V41s0,0,0,0,0,0,0-.06.06,0,.08,0,0-.06,0-.08a.06.06,0,0,0,.05,0V40.8a.12.12,0,0,1,.08,0v-.06s.06,0,.06,0,0,0,0,0a.07.07,0,0,1,.06,0,.45.45,0,0,1,0-.08c.06,0,.08,0,.08-.06s0,0,.06,0,0,0,0-.06a.07.07,0,0,0,.06,0s0,0,0-.06l.05,0v0s0-.06,0-.09,0,0,.06.05.06-.13.08-.11,0,.13,0,.15v0a2.84,2.84,0,0,1-.74.41,2.83,2.83,0,0,1-.36,1.1l0,0a.07.07,0,0,0-.06,0L9.31,42"/></g><path class="cls-25" d="M9.46,44.12l.28.12a1.8,1.8,0,0,1,.53.31,5.07,5.07,0,0,1,1.22.13,0,0,0,0,1,0,0h0v0h0a.15.15,0,0,1,0,.1s0,0,0,0,0,0,0,0a.07.07,0,0,0,0,0l-.06-.06a.07.07,0,0,1,0,0s0,0-.06,0,0,0,0,0,0,0-.06-.06,0,0,0,0,0,0-.06,0,0,0,0,0-.06,0-.1,0-.08,0-.12,0,0,0-.06,0h0l0,0,0,0-.06,0s0,0,0,0a.07.07,0,0,0-.06,0l0,0,0,0s0,0-.06,0,0,0-.06,0a0,0,0,0,0,0,0l0,0,0,0-.06,0s0-.06,0-.11a.07.07,0,0,1-.06,0s0-.06,0-.06,0,0,0,0,0,0,0-.06,0,0,0,0a.1.1,0,0,0,0-.08s0,0,0,0,0-.06,0-.06,0,0,0,0,0,0,0-.06a0,0,0,0,1,0,0c0-.06,0,0-.06,0"/><path class="cls-24" d="M9.53,44.33s0,0,0,0,0,0-.06,0,0,0,0,0,0,0-.06,0,0,0,0,0,0,0,0,0a.12.12,0,0,0,0-.08v0"/><path class="cls-25" d="M9,47.81a.88.88,0,0,1-.12.24.33.33,0,0,0,0,.4l.73.88c0,.06,0,.08,0,.08a.18.18,0,0,1-.08.09s0-.11,0-.15-.08,0-.1,0,0-.14-.09-.1,0-.06,0-.08-.06,0-.08,0,0-.07,0-.09-.06,0-.12,0,0-.1-.12-.12c.06-.1-.06-.12-.12-.15a.1.1,0,0,0-.11-.14c0-.06,0-.12-.08-.12s0-.11,0-.11,0-.1,0-.12.06-.12,0-.14c.08,0,.08,0,.06-.11s.1,0,.08-.1l.08,0s0,0,0,0a.15.15,0,0,1,0-.08c0-.06.08,0,.1-.06v0a.16.16,0,0,0,0-.09"/><g class="cls-19"><path class="cls-25" d="M8.7,43.38c.18.39.53.35.76.74a13.77,13.77,0,0,1,1.65,2.16c.32.78.83,3.65.1,3.71S8.8,47.85,8.52,46.8a2.72,2.72,0,0,1,.24-2.44s-.16-.24-.26-.2"/></g><path class="cls-25" d="M9.13,44.14A9,9,0,0,0,10,45.5c.34.55.55,1.15.9,1.71a5.41,5.41,0,0,1,.63,1.09"/><path class="cls-25" d="M9.33,44.55c.22.46.39.87.61,1.32s.35,1.18.57,1.73a7.08,7.08,0,0,1,.41,1.63c0,.25,0,.48,0,.7M9.35,48.3c0-.29,0-.78-.06-1.09a11.28,11.28,0,0,0-.2-1.42c-.09-.5-.07-1-.19-1.5a1,1,0,0,0-.3-.58m1.67,5.71A5.45,5.45,0,0,0,9.9,47.5c-.18-.56-.2-1.15-.35-1.73a8.53,8.53,0,0,1-.45-1.38,1.29,1.29,0,0,1,0-.6"/><path class="cls-25" d="M9.6,45.15c0,.14-.06.25-.17.25m.78-.35c-.27.08-.65-.43-.84-.62a.7.7,0,0,1-.22-.23M8.91,44c-.15,0-.21-.1-.29.08"/><ellipse class="cls-26" cx="8.29" cy="21.33" rx="7.89" ry="7.76"/><ellipse class="cls-6" cx="8.28" cy="21.33" rx="6.51" ry="6.41"/><path class="cls-27" d="M9.07,17.93h0c.26.07.26.07.32.17a.24.24,0,0,1,0,.14l.17.07,0,0a.31.31,0,0,0,.21,0l0,0a.54.54,0,0,1,.42.14.83.83,0,0,1,.33.51,1.12,1.12,0,0,1-.23.81c0,.15.22.21.35.28l.21.07h.07a2,2,0,0,0,1.35-.46l.36-.22.07,0,.35-.21.07-.05a.61.61,0,0,1,.4,0,.62.62,0,0,1,.37.32.7.7,0,0,1,0,.55,2.19,2.19,0,0,1-.42.44.91.91,0,0,0-.36.64.93.93,0,0,0,.27.72l.28.25a.79.79,0,0,1,.33.51.67.67,0,0,1-.17.54.52.52,0,0,1-.39.15h-.07A1.32,1.32,0,0,1,13,23l-.08,0-.38-.24a2.28,2.28,0,0,0-1.18-.49H11.3a1.91,1.91,0,0,0-.47.07l.05.05a1,1,0,0,1,.27.74.8.8,0,0,1-.27.53,5,5,0,0,1-.87.49l0,0c-.93.43-.93.43-1.37.3A.87.87,0,0,1,8.1,24L8,23.65H7.93l-.23,0H7.3l0,.08,0,.1V24a.9.9,0,0,1-.09.62.76.76,0,0,1-.43.29H6.41a2.44,2.44,0,0,1-.66-.08H5.68a.74.74,0,0,1-.49-.35,1.15,1.15,0,0,1,0-.89H5.13a1.78,1.78,0,0,1-.33-.09l-.06,0a4.57,4.57,0,0,1-1.59-1l0,0A.32.32,0,0,1,3,22.16v0A.19.19,0,0,0,3,22l0-.05,0,0a.45.45,0,0,0-.1-.1H2.62a.56.56,0,0,1-.22-.26l0-.05a1.41,1.41,0,0,1-.25-1,.5.5,0,0,1,.08-.14l0-.05C3,19.31,4.86,18.83,6,18.66c.21,0,.41,0,.62,0H7a2.6,2.6,0,0,1,.4,0l0-.05a1.16,1.16,0,0,1,.47-.73A1.59,1.59,0,0,1,9.07,17.93Z"/><path class="cls-28" d="M7,19.77H7c.32,0,.64,0,1,.05h.08c.32,0,.63.08.94.14l.22,0a6.31,6.31,0,0,1,1.54.44,2.28,2.28,0,0,0,.78.08H13v0c0,.14-.09.28-.13.43H7.51l-.09-.24a.53.53,0,0,0-.26-.18,1.53,1.53,0,0,0-.56.06l-.16,0-.08,0-.45.1-.15,0-.09,0-.08,0H5.4v-.05c0-.07,0-.15,0-.22v-.08a1.78,1.78,0,0,0-.08-.45.53.53,0,0,1,0-.13,6.38,6.38,0,0,1,.63-.12H6A8.06,8.06,0,0,1,7,19.77Z"/><path class="cls-29" d="M7.35,21.35H12.9l.14.4.05.09H11.35a1.53,1.53,0,0,0-.52.08l-.08,0-.13.05a2.6,2.6,0,0,1-.56.17H10c-.51.11-1,.19-1.53.26l-.13,0a8.07,8.07,0,0,1-2.14,0l-.23,0a4.55,4.55,0,0,1-.78-.12h0A.28.28,0,0,1,5,22.28l0-.08.06-.11,0-.05a3.09,3.09,0,0,0,.14-.32,1.22,1.22,0,0,1,.27.09l.05,0,.18.09.13.06L6,22a1.06,1.06,0,0,0,.68,0l.1,0,0,0A1.37,1.37,0,0,0,7.35,21.35Z"/><path class="cls-30" d="M4.62,19.38a3.33,3.33,0,0,1,.4,1v.06a2.54,2.54,0,0,1-.48,1.91l-.21.23,0,.05,0,.05,0,0a.12.12,0,0,1-.08,0,2.47,2.47,0,0,1-.79-.61.18.18,0,0,0-.15-.06H3l-.13-.14,0,0-.08-.12a.61.61,0,0,1,.05-.12.45.45,0,0,0-.09-.31c-.08-.13-.15-.26-.22-.39l0-.05a.47.47,0,0,1,0-.37c.08-.18.32-.29.49-.38l.07,0a10.17,10.17,0,0,1,1.41-.68l.07,0A.13.13,0,0,1,4.62,19.38Z"/><path class="cls-31" d="M9.82,22.58a3.91,3.91,0,0,1-2.09.74H7.67A5.74,5.74,0,0,1,4.55,23s0,0-.07-.07l.12-.14,0,0a.27.27,0,0,1,.17-.1l.19,0h.06l.21.05c.26.05.53.09.79.12l.18,0a10.54,10.54,0,0,0,2.91-.17h.07l.2,0h.17Z"/><path class="cls-32" d="M8.67,18.19h.06l.32.1a.51.51,0,0,0,.3,0l.12-.09.4.16v.16a.52.52,0,0,0,.18.15.73.73,0,0,1,.27.28.57.57,0,0,1-.05.44l-.12.15a.44.44,0,0,1-.22-.1,6.21,6.21,0,0,0-2.18-.75A.86.86,0,0,1,8,18.2.83.83,0,0,1,8.67,18.19Z"/><path class="cls-32" d="M10.46,22.53a.81.81,0,0,1,.3.25.58.58,0,0,1,0,.39,1.4,1.4,0,0,1-.53.43l-.08,0a5.93,5.93,0,0,1-.68.31L9.4,24,9.21,24l-.06,0a.69.69,0,0,1-.47,0,.66.66,0,0,1-.3-.43.27.27,0,0,1,0-.13h.05A5.21,5.21,0,0,0,10.46,22.53Z"/><path class="cls-33" d="M8.81,19.34h0l.54.22,0,0a.82.82,0,0,1,.25.16l-.4-.06-.12,0-.06,0c-.54-.09-.54-.09-1.09-.16H8a9.12,9.12,0,0,0-2.71.14H5.14l-.09-.16,0,0L5,19.32l0-.07a.21.21,0,0,1,.12,0l.09,0,.08,0,.09,0A7.37,7.37,0,0,1,6.2,19h0A6,6,0,0,1,8.81,19.34Z"/><path class="cls-34" d="M5.56,23.65h.33l.1,0a1.23,1.23,0,0,0,.27,0h.67l0,.16v.05a.66.66,0,0,1,0,.44.4.4,0,0,1-.25.16H6.43a1.52,1.52,0,0,1-.89-.23.53.53,0,0,1,0-.39A2.68,2.68,0,0,1,5.56,23.65Z"/><path class="cls-35" d="M7.09,20.91l0,.05a.7.7,0,0,1-.14.36l0,.05a.79.79,0,0,1-.46.38,1.15,1.15,0,0,1-.74-.18l-.22-.1-.19-.09v-.12L6.67,21l.19,0Z"/><path class="cls-36" d="M6.36,19.82H6.31a5.36,5.36,0,0,0-.09.88l0,0L6,20.8l-.11,0-.15,0-.05,0-.24,0v-.05c0-.07,0-.15,0-.22v-.08a1.78,1.78,0,0,0-.08-.45.53.53,0,0,1,0-.13,4,4,0,0,1,.6-.11l.14,0H6.2A.29.29,0,0,1,6.36,19.82Z"/><path class="cls-37" d="M5.25,21.72a1.22,1.22,0,0,1,.27.09l.05,0,.18.09.13.06L6,22a.48.48,0,0,0,.29,0,.94.94,0,0,1,.32,0,.38.38,0,0,1,.13.18.61.61,0,0,0,.18.26.71.71,0,0,0,.29,0h.27v0a6,6,0,0,1-1.23,0l-.23,0a4.55,4.55,0,0,1-.78-.12h0A.28.28,0,0,1,5,22.28l0-.08.06-.11,0-.05A3.09,3.09,0,0,0,5.25,21.72Z"/><path class="cls-38" d="M9.82,22.58a3.38,3.38,0,0,1-1.64.65L8,23.28a.41.41,0,0,1-.37,0,1.29,1.29,0,0,1-.36-.34h.06c.44,0,.87-.07,1.3-.13h.06l.47-.08h.07l.2,0h.17Z"/><path class="cls-39" d="M6.78,19h.31v0H7a.54.54,0,0,0-.31,0,1.09,1.09,0,0,0-.23.39l.09,0H6.52a8.87,8.87,0,0,0-1.26.17H5.14l-.09-.16,0,0L5,19.32l0-.07a.21.21,0,0,1,.12,0l.09,0,.08,0,.09,0A6.33,6.33,0,0,1,6.14,19h.11A4.7,4.7,0,0,1,6.78,19Z"/><path class="cls-40" d="M9.14,23.35l.07.11a1,1,0,0,0,.29.3l.13.12c-.74.29-.74.29-1,.21a.72.72,0,0,1-.32-.49v-.07l.06,0,.21-.06.13,0,.09,0,.08,0C9.07,23.32,9.07,23.32,9.14,23.35Z"/><path class="cls-40" d="M8.68,18.19h.06c.16,0,.16,0,.21.1l0,0a1.44,1.44,0,0,0-.29.58l-.07,0-.8-.16A.86.86,0,0,1,8,18.2.82.82,0,0,1,8.68,18.19Z"/><path class="cls-38" d="M12.41,22.19l.41,0H13c.43,0,.43,0,.61.13s.22.22.24.36a.42.42,0,0,1-.08.21.22.22,0,0,1-.19,0,1.56,1.56,0,0,1-.28-.16l-.14-.09-.07,0-.24-.15-.07-.05-.16-.09-.07,0-.06,0,0,0Z"/><path class="cls-41" d="M13.61,19.5a.25.25,0,0,1,.13.17.33.33,0,0,1-.08.27.81.81,0,0,1-.1.09l0,0a.36.36,0,0,1-.32.14h-.84A1.77,1.77,0,0,1,12.6,20l.07-.05.07,0,.08-.05L13,19.8l.2-.12.11-.07.05,0A.4.4,0,0,1,13.61,19.5Z"/><path class="cls-42" d="M6,21.14v.05a.81.81,0,0,0,.2.44l.14.09v0a1.43,1.43,0,0,1-.56-.19l-.14-.07-.12-.06-.14-.05v-.12l.25-.06h.07l.07,0h.07A.32.32,0,0,1,6,21.14Z"/><path class="cls-27" d="M4.27,20.24l.11.09a.75.75,0,0,1,0,.21v.06a.5.5,0,0,1-.05.21.24.24,0,0,1-.2.06A.27.27,0,0,1,4,20.7v-.22a.29.29,0,0,1,.05-.2A.23.23,0,0,1,4.27,20.24Z"/><ellipse class="cls-43" cx="34.03" cy="7.92" rx="7.92" ry="7.79"/><ellipse class="cls-6" cx="34.02" cy="7.92" rx="6.54" ry="6.43"/><path class="cls-44" d="M32.25,4.07a.88.88,0,0,1,.34.46l0,.06v.24h0q.39-.11.78-.18h.07a6.23,6.23,0,0,1,1.06-.09h.06A3.7,3.7,0,0,1,37,5.29l.06,0a2,2,0,0,1,.34.37l0,0A3.17,3.17,0,0,1,38,7.63v0a2.29,2.29,0,0,1-.07.64l0,0a4.27,4.27,0,0,1,1.06.55l.05,0a1.37,1.37,0,0,1,.41.54l0,0a1,1,0,0,1,0,.74,1.78,1.78,0,0,1-.74.7l0,0a4.47,4.47,0,0,1-1.76.47h-.06a11,11,0,0,1-2.22-.05h-.07c-.51-.06-1-.14-1.55-.23l0,0-.17,0h0a.34.34,0,0,1-.28-.16.28.28,0,0,1,0-.13.19.19,0,0,1,.14-.09,4.48,4.48,0,0,1,.63.06,12.46,12.46,0,0,0,3.17.1h.07a3,3,0,0,0,1.9-.71.46.46,0,0,0,.09-.2.38.38,0,0,0-.22-.27,3.15,3.15,0,0,0-.85-.34H37.4l-.06,0h-.06a.25.25,0,0,0-.17,0c-.45.18-.45.18-.66.18v.06c0,.3,0,.3-.13.41a.49.49,0,0,1-.29.08H34.64c-.08,0-.08,0-.13-.06a.24.24,0,0,1,0-.2,2.49,2.49,0,0,1,.11-.29h-.06a3,3,0,0,1-1.15-.08v0c0,.05,0,.1,0,.16v.05a.53.53,0,0,1-.19.31.29.29,0,0,1-.18.05h-.87A.13.13,0,0,1,32,10a.58.58,0,0,1,0-.43.56.56,0,0,1,.31-.24h.09l0,0,0-.06,0-.06a.18.18,0,0,1,0-.1h0a2.8,2.8,0,0,1-1.1-.76l-.05,0a2.76,2.76,0,0,1-.31-.37h-.05a1.71,1.71,0,0,1-1.25-.2l-.16-.13A.73.73,0,0,0,29,7.39,1.32,1.32,0,0,1,28.35,7a.31.31,0,0,1,0-.25l.06-.13,0,0a3.11,3.11,0,0,1,.6-.8l.06,0a3.66,3.66,0,0,1,1.31-.76l0,0,.12,0c.09,0,.11-.11.15-.2A1.37,1.37,0,0,1,31.41,4,1,1,0,0,1,32.25,4.07Z"/><path class="cls-45" d="M32.25,4.07a.88.88,0,0,1,.34.46l0,.06v.24h0q.39-.11.78-.18h.07a6.23,6.23,0,0,1,1.06-.09h.06A3.7,3.7,0,0,1,37,5.29l.06,0a2,2,0,0,1,.34.37l0,0A3.17,3.17,0,0,1,38,7.63v0a2.29,2.29,0,0,1-.07.64l0,0a4.27,4.27,0,0,1,1.06.55l.05,0a1.37,1.37,0,0,1,.41.54l0,0a1,1,0,0,1,0,.74,1.78,1.78,0,0,1-.74.7l0,0a4.47,4.47,0,0,1-1.76.47h-.06a11,11,0,0,1-2.22-.05h-.07c-.51-.06-1-.14-1.55-.23l0,0-.17,0h0a.34.34,0,0,1-.28-.16.28.28,0,0,1,0-.13.19.19,0,0,1,.14-.09,4.48,4.48,0,0,1,.63.06,12.46,12.46,0,0,0,3.17.1h.07a3,3,0,0,0,1.9-.71.46.46,0,0,0,.09-.2.38.38,0,0,0-.22-.27,3.15,3.15,0,0,0-.85-.34H37.4l-.06,0h-.06a.25.25,0,0,0-.17,0c-.45.18-.45.18-.66.18v.06c0,.3,0,.3-.13.41a.49.49,0,0,1-.29.08H34.64c-.08,0-.08,0-.13-.06a.24.24,0,0,1,0-.2,2.49,2.49,0,0,1,.11-.29h-.06a3,3,0,0,1-1.15-.08v0c0,.05,0,.1,0,.16v.05a.53.53,0,0,1-.19.31.29.29,0,0,1-.18.05h-.87A.13.13,0,0,1,32,10a.58.58,0,0,1,0-.43.56.56,0,0,1,.31-.24h.09l0,0,0-.06,0-.06a.18.18,0,0,1,0-.1h0a2.8,2.8,0,0,1-1.1-.76l-.05,0a2.76,2.76,0,0,1-.31-.37h-.05a1.71,1.71,0,0,1-1.25-.2l-.16-.13A.73.73,0,0,0,29,7.39,1.32,1.32,0,0,1,28.35,7a.31.31,0,0,1,0-.25l.06-.13,0,0a3.11,3.11,0,0,1,.6-.8l.06,0a3.66,3.66,0,0,1,1.31-.76l0,0,.12,0c.09,0,.11-.11.15-.2A1.37,1.37,0,0,1,31.41,4,1,1,0,0,1,32.25,4.07Zm-1.05.46a2.45,2.45,0,0,0-.4.81.27.27,0,0,1-.06.1h-.2l0-.18a2.49,2.49,0,0,0-.45.18l-.06,0a3.94,3.94,0,0,0-.48.31l-.07,0a2.51,2.51,0,0,0-.75.93v.08a1.37,1.37,0,0,0,1,.33l.23,0c.16,0,.16,0,.22,0a.32.32,0,0,1,0,.19.16.16,0,0,1-.14.08h-.21a.5.5,0,0,0,.34.14h.25a1.24,1.24,0,0,0,.8-.3.37.37,0,0,0,.14-.23c.16,0,.16,0,.23,0a.17.17,0,0,1,.05.15.94.94,0,0,1-.5.5A.7.7,0,0,0,31.3,8l0,0a2.36,2.36,0,0,0,.79.61,1.55,1.55,0,0,0,0-.21,1.05,1.05,0,0,1,0-.31V7.94s0,0,.05-.08.14,0,.2,0a.36.36,0,0,1,.05.21,2.06,2.06,0,0,0,.39,1.1h.33c0-.08,0-.17,0-.25V8.89a5.07,5.07,0,0,0,.09-.54.33.33,0,0,1,.11-.25.23.23,0,0,1,.2.06,1.67,1.67,0,0,1,0,.5l0,.15v.07l0,.24.13,0,.08,0a2.12,2.12,0,0,0,1.09,0l0,0,0,0a1.38,1.38,0,0,1-.35-1,.15.15,0,0,1,0-.09c.06,0,.11,0,.19,0s0,0,.06.07a.88.88,0,0,1,0,.17,1,1,0,0,0,.34.69,1.84,1.84,0,0,0,1.34.3,1.55,1.55,0,0,0,1-.48,2,2,0,0,0,.31-1.5,2.88,2.88,0,0,0-.62-1.43l0,0a2.25,2.25,0,0,0-1-.66l-.1,0A2.59,2.59,0,0,0,35.44,5l-.07,0a6.11,6.11,0,0,0-2.75.24l-.06,0a.48.48,0,0,0-.26.16,3.14,3.14,0,0,1-.85.49l-.05,0a.37.37,0,0,1-.31,0A.31.31,0,0,1,31,5.76c0-.07,0-.08.09-.12a1.33,1.33,0,0,1,.24-.1,1.67,1.67,0,0,0,.9-.64.61.61,0,0,0-.06-.42.58.58,0,0,0-.34-.21A.76.76,0,0,0,31.2,4.53Z"/><path class="cls-46" d="M34.43,7.41a.3.3,0,0,1,.18.17.62.62,0,0,1,0,.13v.07a.68.68,0,0,1,0,.19L34.5,8c-.07,0-.07,0-.11.07a1.33,1.33,0,0,0,.28,1l.09.1c-.14.13-.47.11-.65.11a1.79,1.79,0,0,1-.69-.11V9.05a1.94,1.94,0,0,0,0-.24c0-.43,0-.43.18-.55l.19-.14a1.54,1.54,0,0,0,.26-.47C34.15,7.49,34.24,7.38,34.43,7.41Z"/><path class="cls-47" d="M32,4.33a.55.55,0,0,1,.22.26.51.51,0,0,1-.06.4l-.08.08,0,0a2.46,2.46,0,0,1-1,.52.29.29,0,0,0-.14.15.77.77,0,0,1-.31-.26v0l-.08,0h.07c.09,0,.09,0,.11-.1a.36.36,0,0,0,0-.09v0s0-.08.05-.13a1.37,1.37,0,0,1,.62-.78A.65.65,0,0,1,32,4.33Z"/><path class="cls-48" d="M37.8,8.64a2.32,2.32,0,0,1,1.32.8.78.78,0,0,1,.12.59,1.46,1.46,0,0,1-.76.71,2.75,2.75,0,0,1-.36.15l0,0,0,0L38,11a.2.2,0,0,1-.13,0l.07,0a1.65,1.65,0,0,0,.92-.71.56.56,0,0,0,0-.4A1.36,1.36,0,0,0,38,9.17L37.53,9l.13-.18,0,0Z"/><path class="cls-49" d="M30.51,6a.49.49,0,0,1,.23.22.45.45,0,0,1-.29.59.67.67,0,0,1-.34,0,.54.54,0,0,1-.22-.38A.46.46,0,0,1,30.51,6Z"/><path class="cls-50" d="M31.46,7.73a2.11,2.11,0,0,1,.37.3l.16.13L32,8h0V8a1.28,1.28,0,0,0,.07.47.15.15,0,0,1,0,.13,3.44,3.44,0,0,1-1-.85v0C31.24,7.63,31.34,7.68,31.46,7.73Z"/><path class="cls-51" d="M35.49,9.47l.39.06H36l.15,0v.17s0,0-.07,0H34.89A.38.38,0,0,1,35,9.5.74.74,0,0,1,35.49,9.47Z"/><path class="cls-52" d="M34.91,7.06c.11,0,.11,0,.14.09a.23.23,0,0,1,0,.21l0,.07-.06.06c-.06.07-.06.07-.15.07s-.08,0-.13,0a.34.34,0,0,1,0-.2.49.49,0,0,1,.11-.14l0,0A.21.21,0,0,1,34.91,7.06Z"/><path class="cls-53" d="M32.75,9.5h.13l.1,0,0,.19h-.62c.06-.09.13-.09.23-.12a.26.26,0,0,0,.1-.07C32.7,9.5,32.7,9.5,32.75,9.5Z"/><path class="cls-54" d="M30.33,6.26c.06,0,.06,0,.1,0s0,.1,0,.13a.2.2,0,0,1-.11,0l-.05,0C30.25,6.26,30.25,6.26,30.33,6.26Z"/><path class="cls-55" d="M32.37,9.68l.06,0h.51v0h-.62Z"/><line class="cls-4" x1="41.34" y1="28.79" x2="46.67" y2="25.89"/><line class="cls-4" x1="40.8" y1="36.77" x2="47.07" y2="39.69"/><ellipse class="cls-56" cx="21.07" cy="26.01" rx="1.46" ry="1.51" transform="translate(-7.99 42.63) rotate(-80.76)"/><ellipse class="cls-56" cx="47.07" cy="39.78" rx="1.51" ry="1.49"/><ellipse class="cls-57" cx="20.06" cy="13.6" rx="1.11" ry="1.09"/><ellipse class="cls-56" cx="47.07" cy="26.01" rx="1.51" ry="1.49"/><ellipse class="cls-56" cx="21.06" cy="39.78" rx="1.51" ry="1.49"/><line class="cls-58" x1="30.86" y1="15.06" x2="22.01" y2="24.88"/><line class="cls-58" x1="37.36" y1="15.06" x2="46.08" y2="24.88"/><line class="cls-58" x1="21.74" y1="41.11" x2="29.77" y2="50.97"/><line class="cls-56" x1="38.39" y1="51.03" x2="46.31" y2="41.07"/><ellipse class="cls-59" cx="45.68" cy="13.74" rx="0.81" ry="0.8"/><ellipse class="cls-60" cx="24.17" cy="31.04" rx="1.11" ry="1.09"/><ellipse class="cls-60" cx="27.44" cy="47.77" rx="1.11" ry="1.09"/><line class="cls-3" x1="19.01" y1="13.94" x2="14.51" y2="16.56"/><ellipse class="cls-61" cx="46.59" cy="49.72" rx="0.77" ry="0.75"/><ellipse class="cls-60" cx="42.99" cy="21.21" rx="1.11" ry="1.09"/><ellipse class="cls-57" cx="34.03" cy="42.29" rx="1.11" ry="1.09"/><line class="cls-62" x1="16" y1="23.41" x2="16" y2="29.39"/><ellipse class="cls-60" cx="16" cy="30.2" rx="1.11" ry="1.09"/><line class="cls-61" x1="16.11" y1="31.29" x2="20.17" y2="38.58"/><ellipse class="cls-60" cx="52.98" cy="34.85" rx="0.81" ry="0.8"/><ellipse class="cls-60" cx="26.48" cy="38.92" rx="0.81" ry="0.8"/><ellipse class="cls-61" cx="47" cy="31.25" rx="1.04" ry="1.03"/><ellipse class="cls-60" cx="31.18" cy="20.81" rx="1.11" ry="1.09"/><ellipse class="cls-63" cx="10.28" cy="31.99" rx="0.81" ry="0.8"/><ellipse class="cls-60" cx="23.88" cy="15.39" rx="0.81" ry="0.8"/><ellipse class="cls-60" cx="49.19" cy="43.74" rx="0.81" ry="0.8"/><ellipse class="cls-63" cx="38.28" cy="45.94" rx="0.81" ry="0.8"/><ellipse class="cls-64" cx="14.14" cy="36.6" rx="0.81" ry="0.8"/><line class="cls-65" x1="41.19" y1="11.23" x2="45.11" y2="13.18"/><line class="cls-66" x1="46.25" y1="13.91" x2="52.84" y2="17.73"/><ellipse class="cls-67" cx="33.74" cy="32.89" rx="10.51" ry="10.34"/><ellipse class="cls-6" cx="33.73" cy="32.89" rx="8.68" ry="8.54"/><path class="cls-68" d="M34.12,30.32a.91.91,0,0,1,.44.54,1,1,0,0,1-.18.76.54.54,0,0,1-.26.16.34.34,0,0,0-.15.09,1.36,1.36,0,0,0,0,.2v.2h1.66a.21.21,0,0,1,.18.11.91.91,0,0,1,0,.17v.29c0,.08,0,.17,0,.25h1a1.1,1.1,0,0,1,.74.26,1,1,0,0,1,.31.72v.35c0,.1,0,.2,0,.29h.43a.82.82,0,0,1,.63.15l.05,0,0,0a.71.71,0,0,1,.09.45v.92c0,.16,0,.33,0,.49v.9a.65.65,0,0,1-.18.47.76.76,0,0,1-.54.19h-.53v.45a1.09,1.09,0,0,1-.31.89,1.21,1.21,0,0,1-.88.28H31.09a1.57,1.57,0,0,1-1.19-.32.94.94,0,0,1-.27-.69v-.33a2.81,2.81,0,0,0,0-.29h-.43a.92.92,0,0,1-.65-.18.61.61,0,0,1-.16-.39V36.22c0-.13,0-.25,0-.38v-.52a.62.62,0,0,1,.17-.46l.05,0,.05,0a.65.65,0,0,1,.39-.09h.59v-.45a1.09,1.09,0,0,1,.26-.85,1.06,1.06,0,0,1,.71-.32h1.09V33a2.53,2.53,0,0,1,0-.28v-.28a.2.2,0,0,1,.11-.18h1.74V32a.47.47,0,0,0,0-.15.72.72,0,0,0-.23-.12.55.55,0,0,1-.26-.24l0-.05a1,1,0,0,1-.05-.67.9.9,0,0,1,.47-.49A.92.92,0,0,1,34.12,30.32Z"/><path d="M34.12,30.32a.91.91,0,0,1,.44.54,1,1,0,0,1-.18.76.54.54,0,0,1-.26.16.34.34,0,0,0-.15.09,1.36,1.36,0,0,0,0,.2v.2h1.66a.21.21,0,0,1,.18.11.91.91,0,0,1,0,.17v.29c0,.08,0,.17,0,.25h1a1.1,1.1,0,0,1,.74.26,1,1,0,0,1,.31.72v.35c0,.1,0,.2,0,.29h.43a.82.82,0,0,1,.63.15l.05,0,0,0a.71.71,0,0,1,.09.45v.92c0,.16,0,.33,0,.49v.9a.65.65,0,0,1-.18.47.76.76,0,0,1-.54.19h-.53v.45a1.09,1.09,0,0,1-.31.89,1.21,1.21,0,0,1-.88.28H31.09a1.57,1.57,0,0,1-1.19-.32.94.94,0,0,1-.27-.69v-.33a2.81,2.81,0,0,0,0-.29h-.43a.92.92,0,0,1-.65-.18.61.61,0,0,1-.16-.39V36.22c0-.13,0-.25,0-.38v-.52a.62.62,0,0,1,.17-.46l.05,0,.05,0a.65.65,0,0,1,.39-.09h.59v-.45a1.09,1.09,0,0,1,.26-.85,1.06,1.06,0,0,1,.71-.32h1.09V33a2.53,2.53,0,0,1,0-.28v-.28a.2.2,0,0,1,.11-.18h1.74V32a.47.47,0,0,0,0-.15.72.72,0,0,0-.23-.12.55.55,0,0,1-.26-.24l0-.05a1,1,0,0,1-.05-.67.9.9,0,0,1,.47-.49A.92.92,0,0,1,34.12,30.32Zm-3.95,3.39,0,0a.63.63,0,0,0-.09.38V37c0,.24,0,.48,0,.72v1a1,1,0,0,0,.12.65l0,.07a.74.74,0,0,0,.56.2h6a.68.68,0,0,0,.53-.19.73.73,0,0,0,.16-.51v-2c0-.27,0-.55,0-.83V34.36a.84.84,0,0,0-.19-.7.76.76,0,0,0-.58-.19H30.73A.71.71,0,0,0,30.17,33.71Z"/><path class="cls-69" d="M37.33,33.78a.47.47,0,0,1,.11.36v3.52c0,.14,0,.29,0,.43v.55c0,.47,0,.47-.12.65l0,.07a.61.61,0,0,1-.45.18H30.68a.68.68,0,0,1-.45-.17.82.82,0,0,1-.19-.64v-.09c0-.07,0-.14,0-.21h.05a8,8,0,0,0,2.08,0L32,38.2a1.9,1.9,0,0,1-.32-1.08V36.9a.27.27,0,0,1,.1-.16.78.78,0,0,1,.4,0h3.1a.58.58,0,0,0,.39-.09,1.87,1.87,0,0,0,.26-.3h-.06a1,1,0,0,1-.7-.28.82.82,0,0,1,.11-1.19.86.86,0,0,1,.56-.18,1,1,0,0,1,.58.29l.06.06a1.55,1.55,0,0,1,.14.29A3.65,3.65,0,0,0,37.33,33.78Z"/><path class="cls-70" d="M35.41,28.22h3.86a1,1,0,0,1,.66.16l0,.05,0,.05a.71.71,0,0,1,.1.45v2.31a.64.64,0,0,1-.17.47.68.68,0,0,1-.55.17h-.16a2.69,2.69,0,0,0-1.8.21,1.78,1.78,0,0,0-.39.47.24.24,0,0,1-.4.06.34.34,0,0,1,0-.2v-.53H35.53a.89.89,0,0,1-.61-.19.62.62,0,0,1-.16-.39V29.38c0-.06,0-.13,0-.19v-.33a.62.62,0,0,1,.17-.46l0,0,.05,0A.73.73,0,0,1,35.41,28.22Z"/><path class="cls-71" d="M28,27.42h3.87a.92.92,0,0,1,.65.16l0,.05.05.05a.78.78,0,0,1,.09.45V29c0,.16,0,.33,0,.49v.9a.65.65,0,0,1-.18.47.74.74,0,0,1-.51.19H30.87v.61a.26.26,0,0,1-.09.18.33.33,0,0,1-.24,0,.36.36,0,0,1-.14-.16,1.38,1.38,0,0,0-.65-.59,6.18,6.18,0,0,0-1.55,0,.91.91,0,0,1-.68-.17.66.66,0,0,1-.15-.39V28.05a.66.66,0,0,1,.16-.46l0,0,.05,0A.68.68,0,0,1,28,27.42Z"/><path class="cls-45" d="M35.41,28.22h3.86a1,1,0,0,1,.66.16l0,.05,0,.05a.71.71,0,0,1,.1.45v2.31a.64.64,0,0,1-.17.47.68.68,0,0,1-.55.17h-.16a2.69,2.69,0,0,0-1.8.21,1.78,1.78,0,0,0-.39.47.24.24,0,0,1-.4.06.34.34,0,0,1,0-.2v-.53H35.53a.89.89,0,0,1-.61-.19.62.62,0,0,1-.16-.39V29.38c0-.06,0-.13,0-.19v-.33a.62.62,0,0,1,.17-.46l0,0,.05,0A.73.73,0,0,1,35.41,28.22Zm-.23.54a.23.23,0,0,0,0,.11v2.29a.37.37,0,0,0,.07.25.33.33,0,0,0,.23.07H36.8l.17,0a.84.84,0,0,1,0,.27V32l.4-.37a.37.37,0,0,1,.33-.12h1.67a.33.33,0,0,0,.2,0,.26.26,0,0,0,.07-.22V28.94a.34.34,0,0,0-.06-.24.36.36,0,0,0-.27-.07h-4A.29.29,0,0,0,35.18,28.76Z"/><path class="cls-45" d="M28,27.42h3.87a.92.92,0,0,1,.65.16l0,.05.05.05a.78.78,0,0,1,.09.45V29c0,.16,0,.33,0,.49v.9a.65.65,0,0,1-.18.47.74.74,0,0,1-.51.19H30.87v.61a.26.26,0,0,1-.09.18.33.33,0,0,1-.24,0,.36.36,0,0,1-.14-.16,1.38,1.38,0,0,0-.65-.59,6.18,6.18,0,0,0-1.55,0,.91.91,0,0,1-.68-.17.66.66,0,0,1-.15-.39V28.05a.66.66,0,0,1,.16-.46l0,0,.05,0A.68.68,0,0,1,28,27.42Zm-.23.53a.25.25,0,0,0,0,.12v2.28a.41.41,0,0,0,.07.26.42.42,0,0,0,.27.06h1.64a.48.48,0,0,1,.35.16l0,0,.06.05.05.06.1.1,0,.05s0,0,.06,0v-.24a.71.71,0,0,1,0-.21.58.58,0,0,1,.23,0H32.1a.25.25,0,0,0,.18-.08.57.57,0,0,0,0-.18V28.6a1,1,0,0,1,0-.17v-.3a.3.3,0,0,0-.07-.24.36.36,0,0,0-.27-.07H28A.29.29,0,0,0,27.79,28Z"/><path class="cls-72" d="M35.45,28.65h4l0,.12,0,.07a.69.69,0,0,1-.1.19H35.59v.43H39l-.15.23-.06.08a.36.36,0,0,1-.33.08H36v.43h2.28a.94.94,0,0,1-.58.39H36.36l-.77,0v.43H37a.29.29,0,0,1-.16.1l-.06,0-.07,0-.07,0a2.81,2.81,0,0,1-1.31.21.28.28,0,0,1-.14-.18V28.81C35.2,28.66,35.31,28.65,35.45,28.65Z"/><path class="cls-73" d="M28.09,27.81h4.06l0,.05a.62.62,0,0,1-.26.35,2.9,2.9,0,0,1-.78,0H29.57l-1.37,0v.43h3.31l-.25.28-.05,0c-.09.08-.2.06-.32.06H28.61v.43h1.92l-.22.16,0,0-.05,0-.05,0L30,29.8l0,0a.61.61,0,0,1-.23,0H28.2v.43h.64a1.64,1.64,0,0,1-.39.14l-.15,0a1.88,1.88,0,0,1-.49.09c0-.05,0-.18,0-.26V28.61a1,1,0,0,0,0-.17V28A.29.29,0,0,1,28.09,27.81Z"/><path class="cls-74" d="M32.1,37.12h3.28a1.6,1.6,0,0,1-1.62,1.62h-.08a1.71,1.71,0,0,1-1.19-.55A1.57,1.57,0,0,1,32.1,37.12Z"/><path class="cls-75" d="M32,36.7h3.59a.26.26,0,0,1,.17,0,.5.5,0,0,1,.06.34v.08a1.36,1.36,0,0,1-.09.52l0,.08A2.12,2.12,0,0,1,34.61,39,2.18,2.18,0,0,1,33,39a2.15,2.15,0,0,1-1.16-1,2.09,2.09,0,0,1-.2-.88V36.9A.28.28,0,0,1,32,36.7Zm.12.42a1.35,1.35,0,0,0,0,.45l0,0a1.77,1.77,0,0,0,.9,1,1.69,1.69,0,0,0,1.25,0l.09,0,.07,0a1.65,1.65,0,0,0,.82-.92,1.37,1.37,0,0,0,.08-.53Z"/><path class="cls-76" d="M28.94,35.1h.7v2.82h-.7c-.14-.14-.14-.14-.14-.23V35.28C28.82,35.22,28.82,35.22,28.94,35.1Z"/><path class="cls-76" d="M37.84,35.1c.67,0,.67,0,.77,0a.21.21,0,0,1,.06.18V37.6a.41.41,0,0,1-.08.3c-.22.11-.5,0-.75,0Z"/><path class="cls-75" d="M32.1,34.79a1.16,1.16,0,0,1,.2.18l.06.06a.87.87,0,0,1,.15.65,1.15,1.15,0,0,1-.1.23l0,.05a.86.86,0,0,1-.5.35,1,1,0,0,1-.7-.15.84.84,0,0,1-.06-1.25A.88.88,0,0,1,32.1,34.79Z"/><path class="cls-75" d="M36.2,34.79a.87.87,0,0,1,.4.54v.15a.84.84,0,0,1-.22.58.86.86,0,0,1-1.24,0,.82.82,0,0,1,.11-1.19A.87.87,0,0,1,36.2,34.79Z"/><path class="cls-75" d="M35.59,30.65h3.69v.41H35.59Z"/><path class="cls-75" d="M28.2,29.85h3.69v.4H28.2Z"/><path class="cls-75" d="M35.59,29h3.69v.4H35.59Z"/><path class="cls-75" d="M28.2,28.23h3.69v.41H28.2Z"/><path class="cls-77" d="M32.1,32.67h3.28v.41H32.1Z"/><path class="cls-75" d="M36,29.85h2.87v.4H36Z"/><path class="cls-75" d="M28.61,29h2.87v.4H28.61Z"/><path class="cls-78" d="M33.92,30.7a.4.4,0,0,1,.23.26.55.55,0,0,1,0,.31.52.52,0,0,1-.32.2.41.41,0,0,1-.33-.11.45.45,0,0,1-.14-.36.47.47,0,0,1,.16-.27A.41.41,0,0,1,33.92,30.7Z"/><path class="cls-79" d="M36,35.14a.44.44,0,0,1,.22.26.47.47,0,0,1,0,.31.46.46,0,0,1-.32.2.41.41,0,0,1-.46-.39.42.42,0,0,1,.14-.33l.07,0,0,0A.43.43,0,0,1,36,35.14Z"/><path class="cls-79" d="M31.87,35.14a.42.42,0,0,1,.23.26.55.55,0,0,1,0,.31.5.5,0,0,1-.32.2.38.38,0,0,1-.33-.11.38.38,0,0,1-.14-.28.43.43,0,0,1,.15-.33l.06,0,.05,0A.4.4,0,0,1,31.87,35.14Z"/><path class="cls-80" d="M61,17.81l0,0a1.3,1.3,0,0,1,.41.87,4,4,0,0,1-.12,1.38h0a.21.21,0,0,1,.11.08l0,0a.45.45,0,0,1,.06.34,1,1,0,0,1-.36.55l0,0a.13.13,0,0,0-.06.07v.15a.79.79,0,0,1-.17.47l0,.05,0,.05,0,.05-.24.27,0,0,0,0,0,0-.07.05a.27.27,0,0,0-.1.11v.27a.76.76,0,0,1,0,.15.64.64,0,0,0,.19.51l0,0s0,0,.05,0h.22l.11,0h.08a1.63,1.63,0,0,1,1.2.41l0,0a1.55,1.55,0,0,1,.31,1.16,1.94,1.94,0,0,1,0,.24,10.89,10.89,0,0,1-2.28.31h-1c-.4,0-.81,0-1.22,0h0a11.87,11.87,0,0,1-1.87-.27H56a1,1,0,0,1,0-.29v0a1.52,1.52,0,0,1,.36-1.14,1.55,1.55,0,0,1,.94-.36h.28l.1,0h.16a.32.32,0,0,0,.22-.12.76.76,0,0,0,.16-.55v0a.63.63,0,0,0-.16-.5l-.2-.16a1.21,1.21,0,0,1-.16-.16l0,0a.56.56,0,0,1-.05-.08l0,0,0-.05,0,0a.94.94,0,0,1-.11-.37v0a1.11,1.11,0,0,1,0-.19h0a.83.83,0,0,1-.39-.49.56.56,0,0,1,0-.34,1.3,1.3,0,0,1,.19-.22.2.2,0,0,0,0-.07v-.1a5.72,5.72,0,0,1,0-.59v0a3.21,3.21,0,0,1,.07-.76l0,0a.84.84,0,0,1,.33-.5.43.43,0,0,1,.2-.07c.09,0,.13-.08.19-.15a1.57,1.57,0,0,1,1-.51A2.86,2.86,0,0,1,61,17.81Z"/><path class="cls-81" d="M57.93,23.51l.06.11,0,.07,0,0a2.12,2.12,0,0,0,.11.21c.08.15.16.29.23.44l.26.47.33.62A4.34,4.34,0,0,0,58.9,25l0-.11v-.06a.22.22,0,0,1,0-.14l.07-.09a.36.36,0,0,0,.11-.16l0,0a.37.37,0,0,1-.12-.2c0-.07.06-.1.11-.14l0,0,.17-.12,0,0,.06.05,0,0,.15.12a.41.41,0,0,1-.15.28.48.48,0,0,0,.15.2c.09.14,0,.35,0,.51l0,.11,0,.1a.81.81,0,0,0,0,.16l.41-.76c.09-.18.18-.35.28-.52l.24-.46,0,0,0-.09c0-.09,0-.09.09-.11h.22l.11,0h.08a1.63,1.63,0,0,1,1.2.41l0,0a1.55,1.55,0,0,1,.31,1.16,1.94,1.94,0,0,1,0,.24,10.89,10.89,0,0,1-2.28.31h-1c-.4,0-.81,0-1.22,0h0a11.87,11.87,0,0,1-1.87-.27H56a1,1,0,0,1,0-.29v0a1.52,1.52,0,0,1,.36-1.14,1.55,1.55,0,0,1,.94-.36h.28l.1,0h.16C57.89,23.49,57.89,23.49,57.93,23.51Z"/><path class="cls-82" d="M61,17.81l0,0a1.3,1.3,0,0,1,.41.87A3.72,3.72,0,0,1,61.3,20v0l0,.09c-.05,0-.05,0-.09,0s0,0-.08,0a.65.65,0,0,0-.08.17h0v-.07a1.28,1.28,0,0,0-.26-.75v0h0v.28a1.13,1.13,0,0,1-.59-.23.67.67,0,0,0,.13.25v0h-.35a2,2,0,0,1-1.48-.54,1.83,1.83,0,0,1-.24-.31V19a1.57,1.57,0,0,1-.33.64l-.08.11,0,0,0,0,0,0,0-.12,0-.05c-.05,0-.05,0-.07.05a1.1,1.1,0,0,0,0,.18v.23a1.21,1.21,0,0,0,0,.19l0,0a.36.36,0,0,0-.22-.13H57.1a2.14,2.14,0,0,1-.05-.8v0a3.21,3.21,0,0,1,.07-.76l0,0a.84.84,0,0,1,.33-.5.43.43,0,0,1,.2-.07c.09,0,.13-.08.19-.15a1.57,1.57,0,0,1,1-.51A2.86,2.86,0,0,1,61,17.81Z"/><path class="cls-83" d="M60.83,23.54a1.66,1.66,0,0,1,1.26.36l0,0,0,0a1.55,1.55,0,0,1,.31,1.16,1.94,1.94,0,0,1,0,.24,9.21,9.21,0,0,1-2.56.31l.22-.27.19-.23.14-.15c.07-.09.15-.18.22-.28s-.08-.11-.13-.16l0,0-.12-.11v0h.4v-.2s0-.07,0-.11v-.18l0-.17v-.22Z"/><path class="cls-83" d="M57.26,23.54h.33c0,.09,0,.17,0,.26v.08c0,.18,0,.36,0,.54h.42a2.61,2.61,0,0,1-.23.24l-.06.06c0,.08.06.12.11.18l.06.06,0,0,.1.12.17.21a2,2,0,0,1,.19.22l0,0,.06.1a4,4,0,0,1-.6,0h0a12.65,12.65,0,0,1-1.73-.25H56a1,1,0,0,1,0-.29v0a1.27,1.27,0,0,1,1.31-1.5Z"/><path class="cls-81" d="M57.93,23.51l.06.11,0,.07,0,0a2.12,2.12,0,0,0,.11.21c.08.15.16.29.23.44l.26.47.33.62h0v.07l0,0,0,.12H58.8c-.26,0-.26,0-.33-.07l0,0,0-.05,0,0a.69.69,0,0,0-.11-.13c-.06-.07-.11-.14-.17-.2l-.21-.25-.05-.05-.06-.07s0,0,0-.07a.36.36,0,0,1,.07-.1l0,0,0,0,.13-.13-.4,0-.05-.89a.4.4,0,0,1,.15,0h.06C57.89,23.49,57.89,23.49,57.93,23.51Z"/><path class="cls-84" d="M60.26,23.18c.22.22.22.22.24.33a.2.2,0,0,1-.06.11l0,.08,0,.07-.2.37,0,.07,0,.1c0,.1-.1.2-.16.3s-.07.13-.1.2l-.27.5,0,0,0,0,0,0a.17.17,0,0,1-.06.06,1.15,1.15,0,0,1,0-.26v-.07l0-.11a.62.62,0,0,0,0-.48l0,0c-.08-.08-.08-.08-.1-.12s0-.06.06-.1a.26.26,0,0,0,.09-.15.15.15,0,0,0,0-.12l0,0,0,0,0,0-.09-.07v0l.07-.05,0,0,0,0,0,0,.15-.09.1-.07.15-.09Z"/><path class="cls-84" d="M58.13,23.19a.34.34,0,0,1,.19.09l0,0,.11.07.1.07.07,0,.37.24.06,0,.14.09a.35.35,0,0,1-.13.14l0,0-.09.07a.31.31,0,0,0,.12.26l0,0a.5.5,0,0,1-.17.21c0,.07,0,.11,0,.19v0a.36.36,0,0,0,0,.1V25l0,.12,0,.11v0a.89.89,0,0,1,0,.23,1.4,1.4,0,0,1-.1-.16l0,0,0-.07s-.05-.11-.08-.16l0,0-.15-.28c-.09-.15-.17-.31-.26-.47s-.15-.29-.22-.43l0-.09L58,23.67a.22.22,0,0,1,0-.08l0,0s0,0,0-.07l.06-.1,0,0,0,0,0,0Z"/><path class="cls-85" d="M59.2,23.87l.09.07.09.07.12.1a.25.25,0,0,1-.09.21l-.06.07a.48.48,0,0,0,.15.2.64.64,0,0,1,0,.41v.05l0,.1,0,.15,0,.1v0a.82.82,0,0,1-.1.26h-.24a.82.82,0,0,1-.12-.34V25.3l0-.11,0-.17,0-.12v-.14a.18.18,0,0,1,0-.16l0-.05a.36.36,0,0,0,.11-.16l0,0a.37.37,0,0,1-.12-.2c0-.07.06-.1.11-.14l0,0Z"/><path class="cls-86" d="M60.24,22.46a1.77,1.77,0,0,1,0,.23v.08c0,.21,0,.21,0,.28l-.14.08,0,0a1.29,1.29,0,0,1-1,.1,1.51,1.51,0,0,1-.42-.25l0,0a1.87,1.87,0,0,1-.26-.3l0,0a.39.39,0,0,1-.08-.14h0v0h0l.12.07a1.35,1.35,0,0,0,1,.27,1.7,1.7,0,0,0,.8-.41S60.22,22.46,60.24,22.46Z"/><path class="cls-87" d="M60.43,23.59a.24.24,0,0,1,0,.14l0,.06,0,.06,0,.06c-.07.13-.14.26-.22.39s-.17.32-.25.48-.19.36-.29.54l0,.05a.58.58,0,0,1-.1.13,1.15,1.15,0,0,1,0-.26v-.07l0-.11a.62.62,0,0,0,0-.48l0,0c-.08-.08-.08-.08-.1-.12s0-.06.06-.09a.53.53,0,0,0,.11-.21l.28.22.09.05v0a1.22,1.22,0,0,1,.12-.19l.06-.08,0,0,.19-.27C60.33,23.72,60.37,23.65,60.43,23.59Z"/><path class="cls-87" d="M58,23.59a1.16,1.16,0,0,1,.2.24l.06.09,0,0,.15.2,0,0,0,0,0,0,.05.07a.07.07,0,0,1,0,.06,1.08,1.08,0,0,0,.24-.18.6.6,0,0,1,.13-.09v0a.6.6,0,0,0,.14.21.2.2,0,0,1-.07.16l0,0-.07.07a.66.66,0,0,0,0,.14v0a.36.36,0,0,0,0,.1V25l0,.12,0,.11v0a.89.89,0,0,1,0,.23,1.4,1.4,0,0,1-.1-.16l0,0,0-.07s-.05-.11-.08-.16l0,0-.15-.28-.24-.44a6.29,6.29,0,0,0-.37-.67A.11.11,0,0,1,58,23.59Z"/><path class="cls-88" d="M58,23.59c.1.09.1.09.11.15h0C58,23.63,58,23.63,58,23.59Z"/></g></g></svg>